<?xml version="1.0" standalone="no"?><!DOCTYPE svg PUBLIC "-//W3C//DTD SVG 1.1//EN" "http://www.w3.org/Graphics/SVG/1.1/DTD/svg11.dtd"><svg t="1512378801512" class="icon" style="" viewBox="0 0 1024 1024" version="1.1" xmlns="http://www.w3.org/2000/svg" p-id="81755" xmlns:xlink="http://www.w3.org/1999/xlink" width="200" height="200"><defs><style type="text/css"></style></defs><path d="M417.4848 917.9136c-10.24-46.08-1.7408-93.4912 23.8592-133.4272l84.0704-131.072c21.8112-33.792 54.6816-59.5968 92.7744-72.6016l23.6544-8.0896 43.8272-68.3008c25.2928-39.5264 64.512-67.1744 110.3872-77.6192 13.7216-3.1744 27.648-4.608 41.3696-4.5056V62.976C837.4272 28.3648 809.472 0 775.168 0H121.856C87.7568 0 59.8016 28.3648 59.8016 62.976v897.9456c0 34.6112 27.9552 62.976 62.2592 62.976H489.472c-36.864-24.8832-62.2592-62.2592-71.9872-105.984zM235.52 215.2448h426.5984c19.5584 0 35.4304 16.896 35.4304 37.888 0 20.8896-15.872 37.888-35.4304 37.888H235.52c-19.5584 0-35.4304-16.896-35.4304-37.888s15.872-37.888 35.4304-37.888z m0 179.2h324.5056c19.5584 0 35.4304 16.896 35.4304 37.888 0 20.8896-15.872 37.888-35.4304 37.888H235.52c-19.5584 0-35.4304-16.896-35.4304-37.888 0-20.8896 15.872-37.888 35.4304-37.888z m-35.4304 217.1904c0-20.8896 15.872-37.888 35.4304-37.888h181.5552c19.5584 0 35.4304 16.896 35.4304 37.888 0 20.8896-15.872 37.888-35.4304 37.888H235.52c-19.5584-0.1024-35.4304-16.9984-35.4304-37.888z m637.44-16.9984c-1.4336-0.7168-2.9696-0.6144-4.096-0.4096-1.1264 0.2048-2.7648 0.9216-3.7888 2.56l-22.016 34.304c2.1504 2.4576 4.3008 5.0176 6.3488 7.5776l23.552-36.6592v-7.3728zM584.704 879.616c0.3072 1.1264 1.024 1.7408 1.6384 2.1504 1.6384 1.024 3.3792 0.9216 4.608 0.6144 0.8192-0.2048 2.56-0.8192 3.7888-2.6624l21.9136-34.2016c-2.1504-2.4576-4.3008-5.0176-6.3488-7.5776l-24.9856 38.912c-0.6144 0.9216-0.8192 1.8432-0.6144 2.7648z m197.632 24.2688l-43.8272 68.3008c-13.4144 20.8896-30.6176 38.4-50.688 51.8144h87.4496c34.2016 0 62.2592-28.3648 62.2592-62.976v-79.5648c-9.9328 5.7344-20.3776 10.5472-31.3344 14.2336l-23.8592 8.192z m1.1264-88.576c33.28-51.9168 24.8832-117.9648-16.6912-159.3344l-2.048 3.1744c-0.2048 0.4096-0.4096 0.7168-0.7168 1.024L719.872 722.432c0.4096 0.7168 0.6144 1.4336 1.024 2.1504 0.4096 0.9216 0.9216 1.8432 1.3312 2.7648 6.4512 15.4624 5.0176 32.6656-4.1984 47.0016l-38.4 59.8016c-0.3072 0.4096-0.6144 0.7168-0.9216 1.1264l-45.056 70.144c-7.7824 12.0832-19.6608 19.968-32.6656 22.9376-13.0048 2.9696-27.0336 1.024-39.2192-6.4512-24.1664-15.0528-31.232-46.7968-15.7696-70.9632l52.8384-82.3296c-10.24-40.0384-3.9936-83.7632 20.0704-121.1392l14.1312-22.1184c-27.3408 9.3184-51.8144 27.5456-68.5056 53.5552l-84.0704 131.072c-38.7072 60.3136-21.0944 139.776 39.3216 177.3568 30.208 18.7392 65.4336 23.552 97.8944 16.0768 32.4608-7.4752 62.2592-27.136 81.6128-57.344l84.1728-130.7648z m120.9344-326.2464c-30.208-18.8416-65.4336-23.552-97.8944-16.1792-32.4608 7.4752-62.2592 27.136-81.6128 57.344l-84.1728 131.072c-33.3824 52.0192-24.7808 118.0672 16.896 159.4368l38.4-59.8016c5.0176-7.8848 5.3248-17.6128 0.8192-26.0096-4.608-8.6016-3.9936-19.0464 1.7408-27.0336l44.1344-62.2592 47.8208-74.5472c7.68-12.0832 19.6608-19.8656 32.6656-22.9376 13.0048-2.9696 27.0336-1.024 39.2192 6.4512 24.1664 15.0528 31.232 46.7968 15.7696 70.9632L825.344 707.584c10.3424 40.1408 4.096 83.8656-19.968 121.344L791.2448 850.944c27.2384-9.3184 51.6096-27.4432 68.3008-53.4528l84.0704-131.072c38.8096-60.416 21.1968-139.776-39.2192-177.3568z" fill="#ffffff" p-id="81756"></path></svg>