<?xml version="1.0" standalone="no"?><!DOCTYPE svg PUBLIC "-//W3C//DTD SVG 1.1//EN" "http://www.w3.org/Graphics/SVG/1.1/DTD/svg11.dtd"><svg t="1512375240910" class="icon" style="" viewBox="0 0 1024 1024" version="1.1" xmlns="http://www.w3.org/2000/svg" p-id="48774" xmlns:xlink="http://www.w3.org/1999/xlink" width="200" height="200"><defs><style type="text/css"></style></defs><path d="M1015.125333 613.973333A42.581333 42.581333 0 0 0 981.333333 597.333333h-341.333333a42.666667 42.666667 0 0 0-42.666667 42.666667v21.333333H85.333333a85.333333 85.333333 0 0 1-85.333333-85.333333v-128a85.333333 85.333333 0 0 1 85.333333-85.333333h853.333334a85.333333 85.333333 0 0 1 85.333333 85.333333v128c0 13.653333-3.2 26.496-8.874667 37.973333zM597.333333 725.333333v256a42.666667 42.666667 0 0 0 42.666667 42.666667h149.333333H85.333333a85.333333 85.333333 0 0 1-85.333333-85.333333v-128a85.333333 85.333333 0 0 1 85.333333-85.333334h512zM85.333333 0h853.333334a85.333333 85.333333 0 0 1 85.333333 85.333333v128a85.333333 85.333333 0 0 1-85.333333 85.333334H85.333333a85.333333 85.333333 0 0 1-85.333333-85.333334V85.333333a85.333333 85.333333 0 0 1 85.333333-85.333333z m42.666667 192a42.666667 42.666667 0 1 0 0-85.333333 42.666667 42.666667 0 0 0 0 85.333333z m0 725.333333a42.666667 42.666667 0 1 0 0-85.333333 42.666667 42.666667 0 0 0 0 85.333333zM128 554.666667a42.666667 42.666667 0 1 0 0-85.333334 42.666667 42.666667 0 0 0 0 85.333334z m554.666667 85.333333h256l85.333333 85.504V981.333333a42.666667 42.666667 0 0 1-42.666667 42.666667h-298.666666a42.666667 42.666667 0 0 1-42.666667-42.666667v-298.666666a42.666667 42.666667 0 0 1 42.666667-42.666667z m42.666666 42.666667v85.333333a42.666667 42.666667 0 0 0 42.666667 42.666667h128a42.666667 42.666667 0 0 0 42.666667-42.666667v-85.333333h-213.333334z m42.666667 213.333333a42.666667 42.666667 0 0 0-42.666667 42.666667v42.666666h213.333334v-42.666666a42.666667 42.666667 0 0 0-42.666667-42.666667h-128z" p-id="48775"></path></svg>