<?xml version="1.0" standalone="no"?><!DOCTYPE svg PUBLIC "-//W3C//DTD SVG 1.1//EN" "http://www.w3.org/Graphics/SVG/1.1/DTD/svg11.dtd"><svg t="1512369729168" class="icon" style="" viewBox="0 0 1039 1024" version="1.1" xmlns="http://www.w3.org/2000/svg" p-id="46208" xmlns:xlink="http://www.w3.org/1999/xlink" width="202.9296875" height="200"><defs><style type="text/css"></style></defs><path d="M200.97961 714.447065c-25.690943 0-46.516248 20.831433-46.516248 46.522377 0 25.6889 20.826326 46.515226 46.516248 46.515226 25.69503 0 46.520334-20.826326 46.520334-46.515226C247.500965 735.278499 226.670553 714.447065 200.97961 714.447065L200.97961 714.447065zM883.241743 962.554831 169.969459 962.554831c-8.564669 0-15.506097 6.935298-15.506097 15.499968l0 15.504054c0 8.566712 6.941428 15.506097 15.506097 15.506097l713.272284 0c8.564669 0 15.504054-6.939384 15.504054-15.506097l0-15.504054C898.745797 969.490129 891.806412 962.554831 883.241743 962.554831L883.241743 962.554831zM929.756969 94.218514 92.44204 94.218514c-8.564669 0-15.504054 6.939384-15.504054 15.506097L76.937986 605.905409c0 8.564669 6.939384 15.504054 15.504054 15.504054l837.314929 0c8.566712 0 15.506097-6.945514 15.506097-15.504054L945.263066 109.723589C945.263066 101.157898 938.32266 94.218514 929.756969 94.218514L929.756969 94.218514zM991.77727 16.692116 30.415609 16.692116c-17.124231 0-31.010151 13.878769-31.010151 31.010151l0 868.313843c0 17.13036 13.88592 31.010151 31.010151 31.010151l961.362683 0c17.131382 0 31.01628-13.880812 31.01628-31.010151L1022.794572 47.703288C1022.79355 30.571906 1008.908652 16.692116 991.77727 16.692116L991.77727 16.692116zM976.273217 885.012088c0 8.564669-6.939384 15.504054-15.506097 15.504054L61.431889 900.516142c-8.564669 0-15.510183-6.939384-15.510183-15.504054L45.921706 78.707309c0-8.564669 6.945514-15.506097 15.510183-15.506097l899.335231 0c8.566712 0 15.506097 6.940406 15.506097 15.506097L976.273217 885.012088 976.273217 885.012088zM929.756969 652.425743 92.44204 652.425743c-8.564669 0-15.504054 6.945514-15.504054 15.506097l0 186.062947c0 8.570799 6.939384 15.504054 15.504054 15.504054l837.314929 0c8.566712 0 15.506097-6.939384 15.506097-15.504054L945.263066 667.93184C945.263066 659.371256 938.32266 652.425743 929.756969 652.425743L929.756969 652.425743zM200.97961 845.693677c-46.790023 0-84.725256-37.93319-84.725256-84.724235 0-46.798195 37.935233-84.731385 84.725256-84.731385 46.796152 0 84.730364 37.93319 84.730364 84.731385C285.709974 807.760487 247.775762 845.693677 200.97961 845.693677L200.97961 845.693677zM898.745797 784.223991c0 4.280292-3.470203 7.755602-7.754581 7.755602L348.288041 791.979593c-4.27927 0-7.754581-3.475311-7.754581-7.755602l0-15.506097c0-4.27927 3.475311-7.748451 7.754581-7.748451l542.703175 0c4.284378 0 7.754581 3.470203 7.754581 7.748451L898.745797 784.223991 898.745797 784.223991zM898.745797 784.223991" p-id="46209"></path></svg>