<?xml version="1.0" standalone="no"?><!DOCTYPE svg PUBLIC "-//W3C//DTD SVG 1.1//EN" "http://www.w3.org/Graphics/SVG/1.1/DTD/svg11.dtd"><svg t="1512375147326" class="icon" style="" viewBox="0 0 1024 1024" version="1.1" xmlns="http://www.w3.org/2000/svg" p-id="47477" xmlns:xlink="http://www.w3.org/1999/xlink" width="200" height="200"><defs><style type="text/css"></style></defs><path d="M960 891.1c0 28.5-23.2 51.7-51.7 51.7H115.7c-28.5 0-51.7-23.2-51.7-51.7V718.8c0-28.5 23.2-51.7 51.7-51.7h229.9c14.5 39.8 52.8 68.9 97.5 68.9h137.8c44.7 0 82.9-29.1 97.5-68.9h229.9c28.5 0 51.7 23.2 51.7 51.7v172.3zM753.2 391.4H615.4v241.2c0 18.8-15.6 34.5-34.5 34.5H443.1c-18.8 0-34.5-15.6-34.5-34.5V391.4H270.8c-14 0-26.4-8.6-31.8-21.5-5.4-12.4-2.7-27.5 7.5-37.2L487.8 91.5c6.5-7 15.6-10.2 24.2-10.2s17.8 3.2 24.2 10.2l241.2 241.2c10.2 9.7 12.9 24.8 7.5 37.2-5.3 12.9-17.7 21.5-31.7 21.5z m-34.4 413.5c-18.8 0-34.5 15.6-34.5 34.5 0 18.8 15.6 34.5 34.5 34.5s34.5-15.6 34.5-34.5c-0.1-18.9-15.7-34.5-34.5-34.5z m137.8 0c-18.8 0-34.5 15.6-34.5 34.5 0 18.8 15.6 34.5 34.5 34.5 18.8 0 34.5-15.6 34.5-34.5s-15.6-34.5-34.5-34.5z" fill="" p-id="47478"></path></svg>