<?xml version="1.0" standalone="no"?><!DOCTYPE svg PUBLIC "-//W3C//DTD SVG 1.1//EN" "http://www.w3.org/Graphics/SVG/1.1/DTD/svg11.dtd"><svg t="1512376853757" class="icon" style="" viewBox="0 0 1024 1024" version="1.1" xmlns="http://www.w3.org/2000/svg" p-id="72536" xmlns:xlink="http://www.w3.org/1999/xlink" width="200" height="200"><defs><style type="text/css"></style></defs><path d="M137.168 331.005c-20.336 0-36.761 16.52-36.761 36.758 0 20.336 16.425 36.761 36.761 36.761 20.286 0 36.758-16.425 36.758-36.761 0-20.238-16.469-36.758-36.758-36.758M137.168 620.486c-20.336 0-36.761 16.473-36.761 36.758 0 20.337 16.425 36.758 36.761 36.758 20.286 0 36.758-16.421 36.758-36.758 0-20.285-16.469-36.758-36.758-36.758M886.115 620.486c-20.285 0-36.762 16.473-36.762 36.758 0 20.337 16.473 36.758 36.762 36.758 20.285 0 36.758-16.421 36.758-36.758 0-20.285-16.473-36.758-36.758-36.758M886.115 331.005c-20.285 0-36.762 16.52-36.762 36.758 0 20.336 16.473 36.761 36.762 36.761 20.285 0 36.758-16.425 36.758-36.761 0-20.238-16.473-36.758-36.758-36.758" p-id="72537"></path><path d="M897.608 751.435H125.672c-50.67 0-91.921-41.202-91.921-91.873V365.489c0-50.67 41.254-91.92 91.921-91.92h771.936c50.67 0 91.873 41.253 91.873 91.92v294.073c0.003 50.67-41.202 91.873-91.873 91.873zM125.672 310.33c-30.43 0-55.16 24.733-55.16 55.16v294.072c0 30.382 24.734 55.115 55.16 55.115h771.936c30.382 0 55.115-24.733 55.115-55.115V365.489c0-30.43-24.733-55.159-55.115-55.159H125.672z" p-id="72538"></path><path d="M244.838 599.764c0 9.178-7.437 16.664-16.663 16.664-9.179 0-16.617-7.486-16.617-16.664V425.29c0-9.226 7.438-16.664 16.617-16.664a16.635 16.635 0 0 1 16.663 16.664v174.473zM325.844 599.764c0 9.178-7.49 16.664-16.668 16.664-9.226 0-16.664-7.486-16.664-16.664V425.29a16.635 16.635 0 0 1 16.664-16.664c9.179 0 16.668 7.438 16.668 16.664v174.473zM487.803 599.764c0 9.178-7.486 16.664-16.664 16.664s-16.667-7.486-16.667-16.664V425.29c0-9.226 7.489-16.664 16.667-16.664s16.664 7.438 16.664 16.664v174.473zM568.808 599.764c0 9.178-7.485 16.664-16.664 16.664-9.226 0-16.667-7.486-16.667-16.664V425.29a16.635 16.635 0 0 1 16.667-16.664c9.179 0 16.664 7.438 16.664 16.664v174.473zM649.762 599.764c0 9.178-7.438 16.664-16.664 16.664-9.178 0-16.664-7.486-16.664-16.664V425.29c0-9.226 7.486-16.664 16.664-16.664a16.635 16.635 0 0 1 16.664 16.664v174.473zM730.767 599.764c0 9.178-7.485 16.664-16.664 16.664-9.226 0-16.663-7.486-16.663-16.664V425.29a16.635 16.635 0 0 1 16.663-16.664c9.179 0 16.664 7.438 16.664 16.664v174.473zM811.728 599.764c0 9.178-7.437 16.664-16.667 16.664-9.179 0-16.616-7.486-16.616-16.664V425.29c0-9.226 7.437-16.664 16.616-16.664a16.637 16.637 0 0 1 16.667 16.664v174.473z" p-id="72539"></path></svg>