<?xml version="1.0" standalone="no"?><!DOCTYPE svg PUBLIC "-//W3C//DTD SVG 1.1//EN" "http://www.w3.org/Graphics/SVG/1.1/DTD/svg11.dtd"><svg t="1512368255109" class="icon" style="" viewBox="0 0 1024 1024" version="1.1" xmlns="http://www.w3.org/2000/svg" p-id="4268" xmlns:xlink="http://www.w3.org/1999/xlink" width="200" height="200"><defs><style type="text/css"></style></defs><path d="M193.422222 0h159.288889v91.022222H193.422222zM671.288889 0h159.288889v91.022222h-159.288889z" p-id="4269"></path><path d="M887.466667 68.266667v68.266666h-273.066667V68.266667H409.6v68.266666H136.533333V68.266667H0v955.733333h445.724444a409.258667 409.258667 0 0 1-80.952888-136.533333H341.333333v-159.288889h0.682667a409.201778 409.201778 0 0 1 9.614222-68.266667H341.333333V500.622222h85.333334a411.477333 411.477333 0 0 1 119.466666-104.334222V273.066667h136.533334v73.955555a411.932444 411.932444 0 0 1 68.266666-5.688889V273.066667h136.533334v91.648a409.258667 409.258667 0 0 1 136.533333 80.952889V68.266667zM273.066667 887.466667H136.533333v-159.288889h136.533334z m0-227.555556H136.533333V500.622222h136.533334z m0-227.555555H136.533333V273.066667h136.533334z m204.8 0H341.333333V273.066667h136.533334z" p-id="4270"></path><path d="M750.933333 477.866667a273.066667 273.066667 0 1 0 273.066667 273.066666 273.066667 273.066667 0 0 0-273.066667-273.066666z m147.569778 318.577777a136.533333 136.533333 0 0 1-131.868444 35.328l-86.698667 86.698667a68.380444 68.380444 0 1 1-96.711111-96.711111l86.698667-86.698667a136.533333 136.533333 0 0 1 167.196444-167.196444l-34.986667 35.498667a68.380444 68.380444 0 1 0 96.711111 96.711111l35.328-35.328a136.533333 136.533333 0 0 1-35.669333 131.697777z" p-id="4271"></path></svg>