<?xml version="1.0" standalone="no"?><!DOCTYPE svg PUBLIC "-//W3C//DTD SVG 1.1//EN" "http://www.w3.org/Graphics/SVG/1.1/DTD/svg11.dtd"><svg t="1507777916767" class="icon" style="" viewBox="0 0 1024 1024" version="1.1" xmlns="http://www.w3.org/2000/svg" p-id="18878" xmlns:xlink="http://www.w3.org/1999/xlink" width="200" height="200"><defs><style type="text/css"></style></defs><path d="M986.979474 849.017417c0.6656 3.959954 0.500297 8.740571-0.492983 14.34624-0.98304 5.605669-2.633143 11.291794-4.93568 17.061303-2.315703 5.770971-5.112686 10.961189-8.411428 15.580891-3.306057 4.616777-6.919314 7.912594-10.883657 9.894766-3.957029 1.974857-7.415223 2.963749-10.387749 2.963749s-6.269806-0.658286-9.890377-1.980709c-3.295817-0.98304-7.416686-1.892937-12.361143-2.720914a57.929143 57.929143 0 0 0-15.086446-0.490057 72.870766 72.870766 0 0 0-15.330742 3.210971 29.963703 29.963703 0 0 0-13.108663 8.411429c-7.914057 8.240274-12.526446 17.642057-13.847406 28.195108-1.323886 10.545737 0.160914 20.598491 4.447086 30.159726 3.301669 6.601874 2.801371 13.193509-1.4848 19.785143-1.97632 2.637531-5.105371 5.361371-9.391543 8.164206-4.287634 2.799909-8.986331 5.352594-14.094629 7.665371a87.552 87.552 0 0 1-16.078263 5.438903c-5.607131 1.318034-10.5472 1.980709-14.830445 1.980708-2.975451 0-5.77536-1.158583-8.412892-3.465508-2.636069-2.304-4.445623-4.78208-5.43744-7.418149h-0.500297c-3.623497-10.222446-9.808457-19.037623-18.54464-26.464548-8.743497-7.412297-18.873783-11.119177-30.4128-11.119177-11.209874 0-21.351863 3.705417-30.421577 11.119177-9.069714 7.426926-15.412663 16.079726-19.040549 25.974491-1.651566 3.954103-4.122331 6.834469-7.418148 8.649874-3.300206 1.819794-6.926629 2.72384-10.880732 2.72384-4.616777 0-9.811383-0.826514-15.580891-2.475154a145.195886 145.195886 0 0 1-17.308526-6.182034c-5.773897-2.475154-10.965577-5.362834-15.580891-8.657189-4.616777-3.298743-8.076434-6.593097-10.387749-9.888914-1.647177-2.308389-2.551223-5.030766-2.717988-8.165669-0.162377-3.126126 1.070811-7.497143 3.708343-13.098422 3.626423-7.589303 5.029303-16.243566 4.205714-25.973029-0.823589-9.720686-5.029303-18.711406-12.611292-26.95168-4.615314-4.944457-10.220983-8.164206-16.818468-9.647543-6.591634-1.480411-12.858514-2.05824-18.793326-1.729097-6.925166 0.32768-14.012709 1.650103-21.265554 3.955566-4.615314 1.322423-9.232091 0.990354-13.847406-0.984503-3.629349-1.32096-7.005623-4.371017-10.140526-9.15456-3.13344-4.780617-5.934811-10.05568-8.40704-15.828114a97.28 97.28 0 0 1-5.691977-17.804435c-1.315109-6.098651-1.645714-11.125029-0.985965-15.086445 0.985966-7.252846 4.284709-11.866697 9.89184-13.843018 9.89184-3.954103 18.793326-10.469669 26.707382-19.53792 7.912594-9.069714 11.869623-19.205851 11.869623-30.415725 0-11.54048-3.957029-21.59616-11.869623-30.165577-7.914057-8.573806-16.815543-14.842149-26.707382-18.799178-2.966674-0.988891-5.441829-3.382126-7.418149-7.169462-1.979246-3.791726-2.968137-7.666834-2.968137-11.6224 0-4.286171 0.658286-9.071177 1.980708-14.344778a98.245486 98.245486 0 0 1 5.193143-15.32928c2.14016-4.948846 4.612389-9.48224 7.416686-13.601645 2.801371-4.123794 5.852891-7.172389 9.150171-9.148709 2.636069-1.64864 5.193143-2.311314 7.665372-1.979246 2.470766 0.330606 5.19168 0.988891 8.16128 1.979246 9.893303 3.954103 20.194743 5.188754 30.908708 3.708343 10.715429-1.4848 20.194743-6.180571 28.440869-14.101943 3.95264-3.951177 6.838857-8.81664 8.6528-14.586148s2.966674-11.457097 3.462583-17.062766c0.495909-5.604206 0.495909-10.716891 0-15.332206-0.495909-4.616777-0.906971-7.912594-1.237577-9.890377-0.658286-1.980709-1.236114-4.287634-1.729097-6.923703-0.497371-2.636069-0.250149-4.948846 0.741668-6.92224 1.977783-4.61824 5.520823-8.657189 10.632046-12.118308s10.636434-6.3488 16.56832-8.6528c5.937737-2.311314 11.70432-4.038949 17.309988-5.193143 5.605669-1.15712 10.05568-1.734949 13.35296-1.734949 4.29056 0 7.668297 1.401417 10.141989 4.207177 2.472229 2.798446 4.204251 5.686126 5.194606 8.6528 3.626423 8.901486 9.561234 16.733623 17.802971 23.49056 8.241737 6.761326 17.966811 10.140526 29.182537 10.140526 11.544869 0 21.757074-3.21536 30.660023-9.643154 8.905874-6.429257 15.16544-14.589074 18.796252-24.480915 1.316571-2.638994 3.383589-5.359909 6.186422-8.158354 2.798446-2.80576 5.6832-4.207177 8.6528-4.207177 4.610926 0 9.644617 0.659749 15.08352 1.977783a96.905509 96.905509 0 0 1 16.072412 5.444754 62.932114 62.932114 0 0 1 14.593463 8.900023c4.450011 3.626423 7.995977 7.584914 10.62912 11.86816 1.655954 2.64192 2.148937 5.520823 1.486263 8.657189-0.656823 3.131977-1.316571 5.356983-1.980709 6.675017-4.286171 9.562697-5.602743 19.61984-3.95264 30.169965 1.645714 10.550126 6.426331 19.780754 14.34624 27.694812 7.909669 7.91552 17.630354 12.283611 29.17376 13.110126 11.546331 0.822126 22.255909-1.072274 32.150674-5.687589 2.637531-1.64864 5.851429-2.311314 9.64608-1.979246 3.7888 0.330606 7.005623 1.811017 9.647543 4.447086 4.944457 4.61824 9.302309 11.623863 13.09696 21.021257 3.793189 9.395931 6.353189 18.875246 7.668297 28.437943 0.662674 5.607131-0.238446 9.972297-2.715063 13.1072-2.476617 3.130514-5.02784 5.193143-7.668297 6.182034-10.223909 3.626423-18.955703 9.976686-26.2144 19.043475-7.252846 9.063863-10.880731 19.369691-10.880731 30.913097 0 11.205486 3.048594 21.013943 9.153097 29.423908 6.097189 8.411429 14.094629 14.425234 23.980617 18.050195 2.317166 1.323886 4.286171 2.64192 5.942126 3.957028 3.622034 2.972526 6.100114 6.762789 7.409371 11.37664z m-229.974308 44.516206c14.842149 0 28.850469-2.807223 42.039588-8.408503 13.194971-5.607131 24.652069-13.35296 34.371292-23.250651 9.729463-9.888914 17.394834-21.347474 23.001965-34.372755 5.60128-13.019429 8.404114-26.95168 8.404115-41.787977 0-14.840686-2.802834-28.768549-8.404115-41.792366-5.607131-13.023817-13.27104-24.40192-23.001965-34.126994-9.720686-9.726537-21.177783-17.388983-34.371292-22.996114-13.190583-5.605669-27.19744-8.408503-42.039588-8.408503-14.839223 0-28.767086 2.802834-41.787977 8.408503-13.02528 5.607131-24.404846 13.268114-34.128458 22.996114-9.725074 9.725074-17.394834 21.103177-22.997577 34.126994-5.604206 13.023817-8.408503 26.953143-8.408503 41.792366 0 14.83776 2.804297 28.768549 8.408503 41.787977 5.602743 13.02528 13.27104 24.48384 22.997577 34.372755 9.723611 9.897691 21.103177 17.64352 34.128458 23.250651 13.020891 5.602743 26.950217 8.408503 41.787977 8.408503zM667.77088 108.159269c8.184686-14.319909 3.025189-31.65184-11.179154-38.821303-14.334537-8.158354-31.697189-1.993874-39.893577 10.166857l-36.713326 64.32768 50.070674 28.486217 37.715383-64.159451zM219.255954 172.486949l50.076526-28.500846-37.715383-64.313052c-5.174126-8.17152-13.364663-13.33248-22.530926-14.336-5.194606 0-11.201097 1.00352-16.362057 3.999452-13.187657 8.170057-18.372023 24.501394-10.193188 38.821303l36.725028 64.329143zM816.837486 276.286903c12.350903-6.982217 17.54112-24.315611 9.356434-38.650149-5.174126-8.158354-13.345646-13.319314-22.535314-14.321371-5.172663 0-11.19232 0-16.351817 2.981303l-64.434469 37.664183 28.543269 49.993142 65.421897-37.667108zM453.446217 35.67616h-0.155063c0-16.3328-13.360274-28.502309-28.553508-28.502309-16.36352 0-29.538011 12.169509-29.538012 28.502309V110.167771h58.248046V35.67616zM479.565531 803.038354H150.65088c-13.307611 0-23.682194 10.358491-23.682194 23.651475v28.424777c0 3.714194 0.930377 7.571749 2.789668 10.359954H108.86144c-13.317851 0-23.68512 10.345326-23.68512 23.639771v28.43648c0 13.292983 10.367269 23.636846 23.68512 23.636846h409.111406c-23.442286-40.869303-37.256046-87.932343-38.407315-138.149303zM127.45728 265.135543l-65.4336-37.664183c-3.004709-1.993874-7.173851-2.998857-10.190263-2.998857-11.183543-0.987429-22.526537 4.005303-28.541806 14.337463-8.178834 14.331611-4.002377 30.649783 10.184412 38.821303l65.442377 37.664182 28.53888-50.159908z" p-id="18879" fill="#ffffff"></path><path d="M694.488503 514.619977v-48.528823c0-147.796846-120.675474-267.108937-268.742949-267.108937-148.23424 0-268.735634 119.312091-268.735634 267.108937v282.457235h326.322469c18.592914-113.113966 102.171794-204.274834 211.156114-233.928412z" p-id="18880" fill="#ffffff"></path></svg>