<?xml version="1.0" standalone="no"?><!DOCTYPE svg PUBLIC "-//W3C//DTD SVG 1.1//EN" "http://www.w3.org/Graphics/SVG/1.1/DTD/svg11.dtd"><svg t="1512378987197" class="icon" style="" viewBox="0 0 1024 1024" version="1.1" xmlns="http://www.w3.org/2000/svg" p-id="87335" xmlns:xlink="http://www.w3.org/1999/xlink" width="200" height="200"><defs><style type="text/css"></style></defs><path d="M244.364 256h418.909c13.963 0 23.272-9.31 23.272-23.273s-9.309-23.272-23.272-23.272h-418.91c-13.963 0-23.272 9.309-23.272 23.272 0 11.637 9.309 23.273 23.273 23.273z m0 139.636h418.909c13.963 0 23.272-9.309 23.272-23.272s-9.309-23.273-23.272-23.273h-418.91c-13.963 0-23.272 9.309-23.272 23.273s9.309 23.272 23.273 23.272z m0 162.91h418.909c13.963 0 23.272-9.31 23.272-23.273S677.236 512 663.273 512h-418.91c-13.963 0-23.272 9.31-23.272 23.273s9.309 23.272 23.273 23.272z m0 139.636h244.363c13.964 0 23.273-9.31 23.273-23.273s-9.31-23.273-23.273-23.273H244.364c-13.964 0-23.273 9.31-23.273 23.273s9.309 23.273 23.273 23.273zM698.182 768c-13.964 0-23.273 9.31-23.273 23.273v209.454h46.546V791.273c0-13.964-9.31-23.273-23.273-23.273z m116.363-116.364c-13.963 0-23.272 9.31-23.272 23.273v325.818h46.545V674.91c0-11.636-9.309-23.273-23.273-23.273zM930.91 791.273c-13.964 0-23.273 9.309-23.273 23.272v186.182h46.546V814.545c0-13.963-11.637-23.272-23.273-23.272z" p-id="87336" fill="#ffffff"></path><path d="M791.273 23.273h-674.91c-25.6 0-46.545 20.945-46.545 46.545v884.364c0 25.6 20.946 46.545 46.546 46.545H512c13.964 0 23.273-9.309 23.273-23.272s-9.31-23.273-23.273-23.273H116.364V69.818h674.909v488.727c0 13.964 9.309 23.273 23.272 23.273s23.273-9.309 23.273-23.273V69.818c0-25.6-20.945-46.545-46.545-46.545z" p-id="87337" fill="#ffffff"></path></svg>