<?xml version="1.0" standalone="no"?><!DOCTYPE svg PUBLIC "-//W3C//DTD SVG 1.1//EN" "http://www.w3.org/Graphics/SVG/1.1/DTD/svg11.dtd"><svg t="1512378515868" class="icon" style="" viewBox="0 0 1024 1024" version="1.1" xmlns="http://www.w3.org/2000/svg" p-id="73375" xmlns:xlink="http://www.w3.org/1999/xlink" width="200" height="200"><defs><style type="text/css"></style></defs><path d="M579.374998 470.015706a321.087799 321.087799 0 0 1 125.695921-25.471984c4.287997 0 8.575995 0.192 12.927992 0.192 20.415987-51.583968 25.599984-112.57593 15.359991-171.839893-23.807985-135.999915-152.319905-226.879858-287.359821-202.943873-134.847916 23.935985-248.767845 128.63992-224.767859 264.639835 5.055997 29.375982 19.327988 75.199953 36.159977 108.287932L12.335352 795.839503c-8.959994 12.927992-14.207991 36.287977-11.391992 52.223967l10.623993 60.351962c-10.111994-58.175964 2.815998 20.991987 10.687993 20.799987l80.76795 1.088c15.48799-2.815998 35.007978-15.87199 43.583972-29.183982l96.89594-151.295906 0.895999-0.959999 84.671947 6.783996 113.15193-177.15189c0.384 0 0.768 0.192 1.087999 0.192 10.111994-13.823991 21.183987-26.879983 33.535979-39.295975A316.415802 316.415802 0 0 1 579.374998 470.015706z m-513.983679 363.007773l-11.967992 5.119997 1.279999-13.119992L289.455179 484.799697l14.079991 13.055992-238.079851 335.16779z m356.671777-625.983608a116.223927 116.223927 0 0 1 162.943898-28.991982c52.991967 37.759976 65.855959 111.103931 28.799982 164.607897-37.119977 53.311967-74.879953 15.67999-127.93592-21.759987-52.799967-37.567977-100.927937-60.351962-63.80796-113.855928z" fill="#ffffff" p-id="73376"></path><path d="M701.870921 510.079681a257.151839 257.151839 0 0 0-257.343839 256.95984c0 141.951911 115.199928 256.959839 257.343839 256.959839a257.087839 257.087839 0 0 0 257.40784-256.959839c0-141.951911-115.199928-257.023839-257.40784-257.02384z m148.735907 362.431774c0 38.399976-73.599954 47.167971-142.71991 47.16797s-143.67991-8.831994-143.679911-47.16797v-10.623994c0-28.287982 50.943968-56.895964 94.207942-72.383954 3.199998-1.151999 18.175989-9.407994 9.791993-31.231981a137.919914 137.919914 0 0 1-37.695976-92.415942c0-53.503967 35.455978-81.535949 76.991952-81.535949 41.407974 0 77.183952 28.031982 77.183952 81.535949 0 34.815978-16.31999 70.143956-37.631977 92.223942h0.192c-8.255995 24.831984 4.863997 30.847981 6.911996 31.423981 45.503972 14.975991 96.63994 43.391973 96.639939 72.383954l-0.192 10.623994z" fill="#ffffff" p-id="73377"></path></svg>