<?xml version="1.0" standalone="no"?><!DOCTYPE svg PUBLIC "-//W3C//DTD SVG 1.1//EN" "http://www.w3.org/Graphics/SVG/1.1/DTD/svg11.dtd"><svg t="1507791203231" class="icon" style="" viewBox="0 0 1024 1024" version="1.1" xmlns="http://www.w3.org/2000/svg" p-id="7123" xmlns:xlink="http://www.w3.org/1999/xlink" width="200" height="200"><defs><style type="text/css"></style></defs><path d="M180.35712 340.2752h520.55552v53.85216H180.35712V340.2752zM180.35712 501.0432h520.56064v53.85216H180.35712zM180.35712 661.8112H376.064v53.85216H180.35712zM180.35712 179.5072h520.55552v53.85216H180.35712V179.5072zM809.96352 945.79712c-15.24224 14.84288-33.62816 22.26688-55.17312 22.26688h-124.68736l-27.91936 55.10656h152.60672c36.78208 0 68.41344-12.89728 94.88896-38.68672s39.71584-56.6016 39.71584-92.43648v-217.52832l-56.57088 53.75488v163.77344c0 20.98176-7.61856 38.90688-22.8608 53.74976z" fill="#ffffff" p-id="7124"></path><path d="M833.18784 37.08416c-2.55488-2.56-5.10464-4.89984-7.6544-7.02464a111.9488 111.9488 0 0 1-7.64928-7.01952l-10.20416-5.12a19.1488 19.1488 0 0 0-8.8832-5.12l-10.19904-5.12a116.66944 116.66944 0 0 1-10.8544-3.21536c-3.86048-1.24416-7.42912-2.1248-10.8544-2.56a344.05376 344.05376 0 0 0-10.85952-1.24416A103.51616 103.51616 0 0 0 744.00256 0H110.78144C57.37984 0 9.8304 47.55456 9.8304 98.7136v796.52352c0 34.95936 12.53376 65.01888 37.59616 90.18368 25.06752 25.15968 55.0144 37.73952 89.84064 37.73952h141.50144l19.09248-53.6832H137.2672c-20.4032 0-37.81632-7.23968-52.23936-21.80096a173.89056 173.89056 0 0 1-11.51488-15.36 56.76032 56.76032 0 0 1-7.64928-17.25952 78.06464 78.06464 0 0 1-2.54976-19.81952s0.09728-726.50752 0-762.63424c0.00512-0.77824 0.10752-1.536 0.13824-2.31424v-0.68608c0-26.1376 13.312-49.16224 33.51552-62.68416 11.41248-8.448 24.47872-13.30176 37.08928-13.16352h609.9456c20.39296 0 37.81632 7.23968 52.24448 21.71904 14.41792 14.47936 21.63712 31.95904 21.63712 52.44416v276.0448l53.5552-52.43904V127.9232c0-34.96448-12.74368-65.24416-38.25152-90.83904z" fill="#ffffff" p-id="7125"></path><path d="M180.35712 822.5792h346.14784v53.85216H180.35712zM275.47648 969.48224h385.03424v53.6832H275.47648z" fill="#ffffff" p-id="7126"></path><path d="M281.0624 572.86656l151.86944-152.45312 167.28064 161.25952z" fill="#ffffff" p-id="7127"></path><path d="M1018.84928 422.05696l-20.50048-20.50048c-0.34816-0.37376-0.66048-0.77312-1.02912-1.14176h0.00512c-0.37888-0.37888-0.78848-0.70144-1.1776-1.06496l-0.60928-0.60928c-0.2048-0.20992-0.45056-0.35328-0.6656-0.54784-0.39936-0.34304-0.77312-0.73216-1.1776-1.05984l-18.0224-18.0224a17.57184 17.57184 0 0 0-24.8576 0l-19.41504 19.41504c-0.70144 0.62464-1.41312 1.21856-2.08384 1.88928l-306.05824 306.06336-153.03168-153.03168a48.98304 48.98304 0 0 0-3.31264-2.9952l-18.39104-18.39616a17.58208 17.58208 0 0 0-24.8576 0l-15.66208 15.66208c-0.24576 0.2304-0.52224 0.4096-0.75776 0.64512l-25.52832 25.53344a19.2512 19.2512 0 0 0 0 27.22816l25.52832 25.52832c0.29184 0.29184 0.62976 0.50176 0.93696 0.75776l181.07904 181.07904a48.08704 48.08704 0 0 0 68.01408 0l338.22208-338.21696c0.02048-0.0256 0.04608-0.03584 0.07168-0.05632l23.31648-23.30624a17.60256 17.60256 0 0 0-0.03584-24.85248z" fill="#ffffff" p-id="7128"></path></svg>