<?xml version="1.0" standalone="no"?><!DOCTYPE svg PUBLIC "-//W3C//DTD SVG 1.1//EN" "http://www.w3.org/Graphics/SVG/1.1/DTD/svg11.dtd"><svg t="1512375921869" class="icon" style="" viewBox="0 0 1024 1024" version="1.1" xmlns="http://www.w3.org/2000/svg" p-id="59347" xmlns:xlink="http://www.w3.org/1999/xlink" width="200" height="200"><defs><style type="text/css"></style></defs><path d="M363.52 691.201c0-138.241 92.16-261.121 215.039-302.082h-40.961V102.4H168.96c-30.722 0-61.441 30.719-61.441 66.559v691.203c0 30.719 30.719 61.438 61.441 61.438h296.958C404.48 865.279 363.52 783.361 363.52 691.201z m0 0M788.48 286.721c-15.359-25.601-40.961-51.199-66.563-81.922C696.32 179.202 665.598 153.6 640 133.12c-25.602-15.36-40.961-25.598-56.32-25.598v235.52H819.2c-0.001-15.36-10.239-30.719-30.72-56.321z m0 0" p-id="59348"></path><path d="M680.961 455.682c-128 0-230.402 107.52-230.402 235.52S558.078 921.6 686.078 921.6 916.48 814.081 916.48 686.081c-5.121-128-107.519-230.399-235.519-230.399z m40.957 317.437l-66.559 66.563c-15.359 15.36-40.961 25.598-61.441 25.598-25.598 0-46.078-10.237-61.438-25.598-15.359-15.359-25.602-40.961-25.602-61.441 0-25.602 10.242-46.078 25.602-61.441l30.719-30.718c10.242-10.239 25.602-10.239 35.84 0 5.121 5.12 5.121 10.241 5.121 15.358 0 5.121 0 10.242-5.121 15.359l-30.719 30.723c-15.359 15.359-15.359 40.957 0 56.32 15.359 15.359 40.961 15.359 56.32 0l66.559-66.563c15.359-15.358 15.359-40.957 0-56.319-5.121-5.118-5.121-10.239-5.121-15.36s0-10.238 5.121-15.359c10.242-10.237 25.602-10.237 35.84 0 15.359 15.359 25.602 40.961 25.602 61.441-5.121 20.48-15.36 46.078-30.723 61.437zM829.441 665.6l-30.723 30.723c-10.238 10.238-25.598 10.238-35.84 0-5.121-5.121-5.121-10.241-5.121-15.362 0-5.118 0-10.239 5.121-15.36l30.719-30.719c15.363-15.359 15.363-40.96 0-56.32-15.359-15.359-40.957-15.359-56.316 0l-66.563 61.442c-15.359 15.358-15.359 40.957 0 56.319 5.121 5.117 5.121 10.238 5.121 15.359 0 5.117 0 10.239-5.121 15.36-5.121 5.12-10.238 5.12-15.359 5.12s-10.238 0-15.359-5.12c-35.84-35.841-35.84-92.161 0-128l66.559-66.563c15.359-10.238 35.84-20.477 61.441-20.477 25.598 0 46.078 10.238 61.441 25.598 35.84 35.839 35.84 92.16 0 128z m0 0" p-id="59349"></path></svg>