<?xml version="1.0" standalone="no"?><!DOCTYPE svg PUBLIC "-//W3C//DTD SVG 1.1//EN" "http://www.w3.org/Graphics/SVG/1.1/DTD/svg11.dtd"><svg t="1507791118850" class="icon" style="" viewBox="0 0 1024 1024" version="1.1" xmlns="http://www.w3.org/2000/svg" p-id="6278" xmlns:xlink="http://www.w3.org/1999/xlink" width="200" height="200"><defs><style type="text/css"></style></defs><path d="M404.8896 719.2576l321.7408-188.2112c14.7456-8.8064 14.7456-29.9008 0-38.2976l-321.7408-188.2112c-14.7456-8.8064-32.9728 2.2528-32.9728 19.2512v376.2176c0.6144 16.9984 18.8416 27.648 32.9728 19.2512zM500.736 2.048C356.7616 2.048 226.5088 64.1024 135.168 163.0208c-6.5536 6.7584-12.9024 14.1312-19.0464 21.7088L16.5888 83.7632v276.2752h272.5888l-101.5808-103.0144c73.3184-93.184 186.7776-152.9856 313.7536-152.9856 221.7984 0 401.2032 182.0672 401.2032 406.7328s-179.6096 406.1184-401.408 406.1184c-176.3328 0-325.8368-114.8928-379.904-275.2512h-104.448c57.344 216.8832 252.3136 377.0368 484.352 377.0368 277.504 0 502.3744-227.5328 502.3744-508.3136S778.24 2.048 500.736 2.048z" p-id="6279" fill="#ffffff"></path></svg>