<?xml version="1.0" standalone="no"?><!DOCTYPE svg PUBLIC "-//W3C//DTD SVG 1.1//EN" "http://www.w3.org/Graphics/SVG/1.1/DTD/svg11.dtd"><svg t="1512376717680" class="icon" style="" viewBox="0 0 1024 1024" version="1.1" xmlns="http://www.w3.org/2000/svg" p-id="68932" xmlns:xlink="http://www.w3.org/1999/xlink" width="200" height="200"><defs><style type="text/css"></style></defs><path d="M582.656 610.304c-30.72 36.864-49.152 84.48-49.152 136.192 0 10.752 1.024 20.992 2.048 31.232l-300.544 0.512s-1.536-11.264 3.072-22.528c5.12-13.312 16.384-28.16 18.944-31.744 5.632-6.656 57.344-49.664 84.48-60.928 9.728-4.096 68.608-23.552 84.992-37.888 16.384-14.336 23.04-42.496 3.072-60.928-19.968-18.944-55.808-97.28-55.808-97.28s-38.4-142.336 43.008-200.192c29.184-22.016 60.928-31.744 86.528-31.744 29.696 0 61.44 6.656 78.848 15.36 31.744 15.872 50.176 38.4 66.048 71.68 18.944 40.448 14.336 96.768 6.144 127.488-8.704 31.744-30.208 82.432-61.44 116.736-15.872 17.408-15.36 32.768-10.24 44.032zM312.832 1024H117.248C52.736 1024 0 971.264 0 906.752v-195.584c0-21.504 17.408-38.912 38.912-38.912s38.912 17.408 38.912 38.912v195.584c0 21.504 17.408 38.912 38.912 38.912H312.32c21.504 0 38.912 17.408 38.912 38.912 1.024 22.016-16.384 39.424-38.4 39.424zM38.912 352.256c-21.504 0-38.912-17.408-38.912-38.912V117.248C0 52.736 52.736 0 117.248 0h195.584c21.504 0 38.912 17.408 38.912 38.912s-17.408 38.912-38.912 38.912H117.248c-21.504 0-38.912 17.408-38.912 38.912V312.32c0 22.016-17.92 39.936-39.424 39.936z m945.664 0c-22.016 0-39.424-17.408-39.424-38.912V117.248c0-21.504-17.408-38.912-39.424-38.912h-237.056c-22.016 0-39.424-17.408-39.424-38.912s17.408-38.912 39.424-38.912h237.056C970.752 0 1024 52.736 1024 117.248v195.584c0 21.504-17.408 39.424-39.424 39.424zM905.728 1024h-237.056c-22.016 0-39.424-17.408-39.424-38.912 0-21.504 17.408-38.912 39.424-38.912h237.056c22.016 0 39.424-17.408 39.424-38.912V711.68c0-21.504 17.408-38.912 39.424-38.912 22.016 0 39.424 17.408 39.424 38.912v195.584c0 64-52.736 116.736-118.272 116.736z m-159.232-448c94.208 0 170.496 76.8 170.496 170.496 0 94.208-76.8 170.496-170.496 170.496s-170.496-76.8-170.496-170.496c0-93.696 76.8-170.496 170.496-170.496z m82.432 142.336c4.608-4.608 4.608-12.8 0-17.408-4.608-4.608-12.8-4.608-17.408 0l-89.088 90.112-39.424-40.448c-4.608-4.608-12.288-5.12-17.408 0-4.608 4.608-5.12 12.288 0 17.408l48.128 49.664c1.024 1.024 1.536 1.024 2.56 1.536 0.512 0.512 1.024 0.512 1.536 1.024 1.536 0.512 3.072 1.024 4.608 1.024 1.536 0 3.072-0.512 4.608-1.024 0.512 0 1.024-0.512 1.536-1.024 1.024-0.512 2.048-1.024 2.56-1.536l97.792-99.328z" fill="#515151" p-id="68933"></path></svg>