<?xml version="1.0" standalone="no"?><!DOCTYPE svg PUBLIC "-//W3C//DTD SVG 1.1//EN" "http://www.w3.org/Graphics/SVG/1.1/DTD/svg11.dtd"><svg t="1512375024212" class="icon" style="" viewBox="0 0 1024 1024" version="1.1" xmlns="http://www.w3.org/2000/svg" p-id="46887" xmlns:xlink="http://www.w3.org/1999/xlink" width="200" height="200"><defs><style type="text/css"></style></defs><path d="M750.336 192c26.3168 0 47.6672-21.504 47.6672-48.0256V47.9744A47.8208 47.8208 0 0 0 750.336 0a47.8208 47.8208 0 0 0-47.6672 47.9744v96c0 26.5216 21.3504 48.0256 47.6672 48.0256z m0 0M512 192c26.3168 0 47.6672-21.504 47.6672-48.0256V47.9744A47.8208 47.8208 0 0 0 512 0a47.8208 47.8208 0 0 0-47.6672 47.9744v96c0 26.5216 21.3504 48.0256 47.6672 48.0256z m0 0" p-id="46888"></path><path d="M925.1328 96h-79.4624v47.9744a95.744 95.744 0 0 1-95.3344 96 95.744 95.744 0 0 1-95.3344-96v-47.9744h-47.6672v47.9744A95.744 95.744 0 0 1 512 239.9744a95.744 95.744 0 0 1-95.3344-96v-47.9744h-47.6672v47.9744a95.744 95.744 0 0 1-95.3344 96 95.744 95.744 0 0 1-95.3344-96v-47.9744H98.8672A47.8208 47.8208 0 0 0 51.2 143.9744v832c0 26.5216 21.3504 48.0256 47.6672 48.0256h826.2656c26.3168 0 47.6672-21.504 47.6672-47.9744V143.9744a47.8208 47.8208 0 0 0-47.6672-47.9744z m-119.1936 768H218.0608a39.8336 39.8336 0 0 1-39.7312-39.9872c0-22.1184 17.7664-39.9872 39.7312-39.9872h587.9296c21.9648 0 39.7312 17.92 39.7312 39.9872a39.936 39.936 0 0 1-39.7824 39.9872z m-7.936-192H225.9968a47.872 47.872 0 0 1-47.6672-48.0256c0-26.4704 21.3504-47.9744 47.6672-47.9744h572.0064c26.3168 0 47.6672 21.504 47.6672 47.9744a47.872 47.872 0 0 1-47.6672 48.0256z m0-208.0256H225.9968a47.8208 47.8208 0 0 1-47.6672-47.9744c0-26.5216 21.3504-48.0256 47.6672-48.0256h572.0064c26.3168 0 47.6672 21.504 47.6672 48.0256a47.8208 47.8208 0 0 1-47.6672 47.9744z m0 0" p-id="46889"></path><path d="M273.664 192c26.3168 0 47.6672-21.504 47.6672-48.0256V47.9744A47.8208 47.8208 0 0 0 273.664 0a47.8208 47.8208 0 0 0-47.6672 47.9744v96c0 26.5216 21.3504 48.0256 47.6672 48.0256z m0 0" p-id="46890"></path></svg>