<?xml version="1.0" standalone="no"?><!DOCTYPE svg PUBLIC "-//W3C//DTD SVG 1.1//EN" "http://www.w3.org/Graphics/SVG/1.1/DTD/svg11.dtd"><svg t="1507777568051" class="icon" style="" viewBox="0 0 1024 1024" version="1.1" xmlns="http://www.w3.org/2000/svg" p-id="11179" xmlns:xlink="http://www.w3.org/1999/xlink" width="200" height="200"><defs><style type="text/css"></style></defs><path d="M487.67 311.634c0-17.598-14.239-31.837-31.837-31.837H151.451c-17.598 0-31.837 14.24-31.837 31.837 0 17.599 14.24 31.838 31.837 31.838h304.382c17.597 0 31.838-14.24 31.838-31.838zM305.725 501.04c0-17.597-14.239-31.837-31.837-31.837H151.451c-17.598 0-31.837 14.24-31.837 31.838s14.24 31.837 31.837 31.837h122.437c17.598 0 31.837-14.24 31.837-31.837zM151.451 658.61c-17.598 0-31.837 14.24-31.837 31.838s14.24 31.837 31.837 31.837h86.93c17.599 0 31.838-14.24 31.838-31.837s-14.24-31.837-31.837-31.837h-86.93z" fill="#ffffff" p-id="11180"></path><path d="M413.487 955.717H135.844c-32.023 0-58.079-30.159-58.079-67.281v-740.9c0-37.123 26.055-67.343 58.079-67.343h584.325c31.961 0 58.015 30.22 58.015 67.343v85.998c0 17.598 14.24 31.837 31.838 31.837s31.837-14.24 31.837-31.837v-85.998c0-72.256-54.596-131.017-121.69-131.017H135.844C68.687 16.518 14.09 75.28 14.09 147.536v740.9c0 72.193 54.596 130.955 121.753 130.955h277.643c17.598 0 31.837-14.24 31.837-31.837s-14.24-31.837-31.837-31.837z" fill="#ffffff" p-id="11181"></path><path d="M956.784 667.385c-2.86-1.305-3.855-3.606-4.166-5.222-0.31-1.618-0.249-4.042 2.052-6.467 2.363-2.55 5.161-4.478 9.078-6.156 28.542-12.748 43.839-37.496 40.916-66.286-2.985-29.6-11.815-54.223-27.05-75.178-20.085-27.672-50.74-36.688-81.893-23.692-4.415 1.804-8.519 2.674-12.934 2.674-2.3 0-5.844-2.3-6.031-4.414-0.25-3.048 0.186-5.97 1.554-9.825 3.047-8.643 7.586-21.64 4.415-37.745-5.1-24.686-22.51-38.801-30.656-45.455-22.945-18.904-49.808-24.562-67.965-27.174-23.007-3.792-44.833 5.037-59.01 23.256-5.41 6.903-10.245 13.98-13.432 21.266-0.89 2.029-6.163 8.496-13.245 4.29-2.837-1.682-4.54-5.72-7.338-11.69-12.996-27.111-36.874-40.668-65.85-37.372-31.838 3.731-57.146 13.432-77.23 29.6-22.51 18.094-30.987 42.598-24.5 69.27 0.707 2.915 1.216 5.503 2.114 8.589 0 0 0.995 3.68 1.092 5.868 0.082 1.795 0.49 3.688-0.498 5.572-1.092 2.088-3.26 4.482-8.367 4.283-3.793-0.248-8.706-1.305-18.282-4.041-14.302-3.98-41.849-6.53-66.41 21.452-17.162 19.65-24.19 42.098-28.728 61.437-7.96 33.516 5.16 74.867 44.646 88.609 0.56 0.31 5.973 0.307 6.716 6.53 0.377 3.174-4.229 7.088-12.188 10.446-28.293 11.876-43.217 37.184-40.978 69.394 1.927 27.299 11.441 52.296 28.23 74.37 17.225 22.635 43.155 32.21 71.323 25.744 8.394-1.928 15.794-3.42 20.334-3.793 0.124 2.612-1.493 6.965-3.172 11.38-3.234 8.208-7.213 20.892-4.726 36.19 2.735 16.976 11.317 31.215 26.427 43.589 19.214 15.732 42.967 26.054 72.628 31.588 34.946 6.53 67.343-10.446 79.904-42.47 0.622-1.678 3.214-11.865 10.042-11.383 5.507 0.393 6.051 4.796 9.546 12.565 12.144 27.007 35.32 42.719 61.622 42.719 2.923 0 5.908-0.187 8.954-0.56 24.934-3.296 48.004-12.064 68.65-26.054 29.038-19.773 39.609-55.404 25.619-86.62-0.622-1.368-2.297-7.55-0.871-10.011 2.655-4.582 12.207-0.105 22.883 2.55 27.41 6.816 53.85-1.493 73.997-24.127 19.463-22.074 25.805-47.88 28.914-65.416 4.664-26.49-4.166-45.207-12.312-56.213-10.07-13.617-23.377-20.954-33.824-25.867z m-16.54 71.074c-2.86 15.98-7.15 26.552-13.929 34.2-5.285 6.032-7.648 5.471-10.632 4.663-14.986-3.792-31.464-6.778-49.808-3.543-27.547 4.912-50.554 30.593-52.357 58.202-1.057 15.36 0.995 28.604 6.405 40.544 1.803 4.041-2.114 7.088-3.296 7.896-12.499 8.458-25.992 13.556-41.849 15.732-0.435-0.248-1.99-1.803-3.545-5.222-8.83-19.774-22.199-33.827-39.983-41.85-23.691-10.57-48.44-7.523-69.83 8.458-12.56 9.451-21.702 21.205-27.174 35.009-0.56 1.493-1.369 4.29-8.955 3.172-19.09-3.607-33.081-9.39-43.963-18.282l-4.535-4.054 1.924-3.532c3.98-10.323 8.084-22.51 7.338-37.372-1.369-30.158-24.002-54.968-53.726-58.948-4.104-0.498-8.021-0.747-11.877-0.747-11.69 0-22.323 2.177-32.334 4.415-3.917 0.995-4.478 0.56-6.592-2.176-9.14-12.064-14.363-25.62-15.358-40.295 0 0-0.19-3.202 0.213-4.162 0.272-0.645 1.306-1.687 1.9-2.056 18.565-11.566 35.569-22.696 44.585-41.04 11.504-23.38 8.706-48.875-7.648-68.276-7.96-9.327-19.028-20.769-34.2-26.054-7.089-2.487-4.663-14.116-4.663-14.302 3.98-16.852 8.27-26.738 19.587-35.133 9.763 2.736 21.764 6.28 36.003 5.223 36.937-2.301 63.364-27.672 65.727-62.12l1.057-10.51-0.684-12.623c-0.622-6.156-1.368-12.25-0.124-22.261 10.632-8.582 24.81-13.68 45.58-14.613 4.104 8.768 10.197 20.21 20.83 30.407 16.043 15.36 38.18 21.702 60.628 17.846 23.505-4.166 43.652-19.214 53.974-40.231 1.555-3.234 3.67-6.592 5.97-9.39 17.41 2.487 28.355 6.467 36.812 13.431 1.99 1.679 8.145 6.591 8.457 6.778l-1.928 6.157c-4.353 12.188-5.969 24.064-4.912 36.5 3.109 33.765 32.023 61.188 65.788 62.37 13.929-0.125 27.609-1.99 40.854-7.463l3.124-1.562 2.97 3.8c8.457 11.628 13.43 26.117 12 45.829-11.566 5.037-21.639 12.064-29.785 20.769-15.67 16.54-22.447 39.734-18.219 61.995 4.229 22.323 19.09 41.352 39.797 51.052 3.358 1.554 7.96 3.917 9.576 6.032 0.683 0.933 1.678 2.3 0.807 7.337z" fill="#ffffff" p-id="11182"></path><path d="M702.086 510.625c-84.008 1.12-149.61 66.783-149.361 149.423 0.124 40.294 15.98 78.1 44.77 106.456 28.17 27.857 65.292 43.092 104.528 43.092h1.618c83.448-0.809 150.791-68.152 150.108-150.17-0.31-40.17-16.292-77.852-45.02-105.958-28.666-28.107-66.722-43.28-106.643-42.843z m0.933 235.296c-23.754 2.052-44.46-8.519-60.815-24.748-16.602-16.354-25.743-38.118-25.805-61.25-0.124-47.383 37.87-85.002 86.495-85.624h1.12c22.572 0 43.9 8.706 60.13 24.624 16.54 16.23 25.743 37.87 25.93 61 0.435 46.948-38.615 85.563-87.055 85.998z" fill="#ffffff" p-id="11183"></path></svg>