<?xml version="1.0" standalone="no"?><!DOCTYPE svg PUBLIC "-//W3C//DTD SVG 1.1//EN" "http://www.w3.org/Graphics/SVG/1.1/DTD/svg11.dtd"><svg t="1512378557454" class="icon" style="" viewBox="0 0 1024 1024" version="1.1" xmlns="http://www.w3.org/2000/svg" p-id="73640" xmlns:xlink="http://www.w3.org/1999/xlink" width="200" height="200"><defs><style type="text/css"></style></defs><path d="M846.112 960H265.888a93.824 93.824 0 0 1-93.888-93.568V157.568A93.824 93.824 0 0 1 265.888 64h580.224a93.856 93.856 0 0 1 93.888 93.568v708.864A93.824 93.824 0 0 1 846.112 960zM265.888 128a29.76 29.76 0 0 0-29.888 29.568v708.864c0 16.32 13.408 29.568 29.888 29.568h580.224a29.76 29.76 0 0 0 29.888-29.568V157.568A29.76 29.76 0 0 0 846.112 128H265.888z" fill="#ffffff" p-id="73641"></path><path d="M288 235.04c0 23.04-14.4 41.696-32.128 41.696H128.128C110.4 276.768 96 258.08 96 235.04s14.4-41.696 32.128-41.696h127.744C273.6 193.344 288 212 288 235.04zM288 416.128c0 23.04-14.4 41.696-32.128 41.696H128.128C110.4 457.824 96 439.168 96 416.128s14.4-41.696 32.128-41.696h127.744C273.6 374.4 288 393.088 288 416.128zM288 597.216c0 23.04-14.4 41.696-32.128 41.696H128.128C110.4 638.912 96 620.256 96 597.216s14.4-41.696 32.128-41.696h127.744C273.6 555.488 288 574.176 288 597.216zM288 778.304c0 23.04-14.4 41.696-32.128 41.696H128.128C110.4 820 96 801.312 96 778.304c0-23.04 14.4-41.696 32.128-41.696h127.744C273.6 736.576 288 755.264 288 778.304z" fill="#ffffff" p-id="73642"></path><path d="M767.744 455.52h-82.56v110.56h-12.768l-164.288-0.16c-9.536 0-19.072 0.128-28.608 0.16-4.096 0-8.224-0.16-12.32-0.128-1.12 0-2.24 0.544-3.52 0.896V455.68h-79.648l-0.256-0.48 191.808-163.648c63.872 54.56 127.744 109.056 192.16 163.968z m-110.112 82.912v-110.112h27.52c-1.024-0.832-1.568-1.312-2.144-1.728-35.328-26.496-70.688-52.992-106.016-79.552-1.504-1.12-2.432-1.12-3.936 0-35.424 26.624-70.88 53.216-106.368 79.808-0.48 0.352-0.928 0.8-1.792 1.568h27.232v2.592c-0.384 9.12-0.384 18.272-0.64 27.424-0.704 25.824-0.256 51.68-0.256 77.504v2.432c55.488 0.064 110.688 0.064 166.4 0.064zM684.928 676.224h-220c0-2.08 0.096-4.128 0-6.144-0.288-6.048 0.928-12.16-1.248-18.08-0.32-0.896-0.032-2.016-0.032-3.168h221.28v27.392zM463.712 622.208v-28.448h221.248v27.2c-0.896 0.032-1.888 0.16-2.88 0.16l-163.424-0.096c-17.184 0-34.368 0.032-51.52 0.16-1.152-0.032-2.304 0.64-3.424 1.024z" fill="#ffffff" p-id="73643"></path></svg>