<?xml version="1.0" standalone="no"?><!DOCTYPE svg PUBLIC "-//W3C//DTD SVG 1.1//EN" "http://www.w3.org/Graphics/SVG/1.1/DTD/svg11.dtd"><svg t="1512369008362" class="icon" style="" viewBox="0 0 1024 1024" version="1.1" xmlns="http://www.w3.org/2000/svg" p-id="18079" xmlns:xlink="http://www.w3.org/1999/xlink" width="200" height="200"><defs><style type="text/css"></style></defs><path d="M142.034 606.064h498v263h-498zM764.253 984.509H19.894c-9.811 0-17.764 8.841-17.764 19.745 0 10.905 7.953 19.746 17.764 19.746h744.359c9.812 0 17.764-8.841 17.764-19.746 0-10.904-7.953-19.745-17.764-19.745z" fill="" p-id="18080"></path><path d="M1024 637.064V0.129H207.402v503.814H42.712v470.358h696.655V761.306h143.174c10.906 0 19.746-8.841 19.746-19.746 0-10.904-8.84-19.745-19.746-19.745h-68.076v-84.75H1024zM269.402 62.129H962v512.936H739.367v-71.121H269.402V62.129z m407.965 850.173H104.712V565.943h572.654v346.359z m97.606-190.488h-35.605v-84.75h35.605v84.75z" fill="" p-id="18081"></path><path d="M776.362 534.943h147.671V101.118H303.239v363.825h473.123z" fill="" p-id="18082"></path></svg>