<?xml version="1.0" standalone="no"?><!DOCTYPE svg PUBLIC "-//W3C//DTD SVG 1.1//EN" "http://www.w3.org/Graphics/SVG/1.1/DTD/svg11.dtd"><svg t="1512375517326" class="icon" style="" viewBox="0 0 1024 1024" version="1.1" xmlns="http://www.w3.org/2000/svg" p-id="52999" xmlns:xlink="http://www.w3.org/1999/xlink" width="200" height="200"><defs><style type="text/css"></style></defs><path d="M820.266667 432.426667l4.394666-110.08a22.4 22.4 0 0 0-22.357333-23.338667H171.264a22.357333 22.357333 0 0 0-22.357333 23.338667l16.938666 423.936a24.789333 24.789333 0 0 0 24.490667 23.338666h198.229333a303.786667 303.786667 0 0 1 431.701334-337.194666zM147.968 191.018667c0-13.141333 10.24-23.765333 23.04-23.765334h405.717333c12.714667 0 27.050667 10.069333 31.744 21.845334l28.928 72.277333H147.968v-70.4z" p-id="53000"></path><path d="M907.946667 664.96l-41.728-17.365333-0.426667-0.170667a187.989333 187.989333 0 0 0-12.373333-29.781333l0.426666-0.981334 17.024-41.216a18.005333 18.005333 0 0 0-3.925333-19.626666l-32.64-32.682667a18.048 18.048 0 0 0-19.626667-3.925333l-41.685333 17.194666-0.554667 0.298667a188.586667 188.586667 0 0 0-29.738666-12.373333 19.925333 19.925333 0 0 1-0.298667-0.725334l-17.237333-41.472a18.005333 18.005333 0 0 0-16.64-11.093333h-46.208a18.048 18.048 0 0 0-16.64 11.093333l-17.365334 41.770667-0.170666 0.426667c-10.24 3.242667-20.224 7.381333-29.781334 12.373333l-0.981333-0.469333-41.216-17.024a18.048 18.048 0 0 0-19.626667 3.925333l-32.682666 32.682667a18.005333 18.005333 0 0 0-3.925334 19.626666l17.194667 41.728a2.474667 2.474667 0 0 1 0.256 0.469334 189.056 189.056 0 0 0-12.373333 29.824l-0.725334 0.256-41.386666 17.237333a18.005333 18.005333 0 0 0-11.136 16.64v46.208c0 7.253333 4.394667 13.866667 11.093333 16.64l41.770667 17.365333 0.384 0.128c3.2 10.154667 7.381333 20.181333 12.373333 29.824a24.746667 24.746667 0 0 0-0.426667 1.024l-17.024 41.173334a18.005333 18.005333 0 0 0 3.925334 19.626666l32.64 32.682667c5.12 5.12 12.928 6.698667 19.626666 3.925333l41.728-17.194666 0.512-0.256c9.642667 4.992 19.626667 9.130667 29.781334 12.373333l0.256 0.725333 17.237333 41.429334c2.816 6.698667 9.386667 11.093333 16.682667 11.093333h46.165333c7.296 0 13.866667-4.352 16.64-11.093333l17.408-41.813334 0.170667-0.341333c10.24-3.285333 20.224-7.424 29.781333-12.373333l0.981333 0.426666 41.216 17.024c6.698667 2.773333 14.464 1.237333 19.626667-3.925333l32.64-32.64a18.005333 18.005333 0 0 0 3.925333-19.626667l-17.194666-41.728-0.213334-0.512a191.573333 191.573333 0 0 0 12.373334-29.824 12.501333 12.501333 0 0 0 0.725333-0.256l41.386667-17.237333a18.005333 18.005333 0 0 0 11.136-16.64v-46.208a18.048 18.048 0 0 0-11.093334-16.64z m-222.549334 106.922667a67.2 67.2 0 1 1 0-134.4 67.2 67.2 0 0 1 0 134.4z" p-id="53001"></path></svg>