<?xml version="1.0" standalone="no"?><!DOCTYPE svg PUBLIC "-//W3C//DTD SVG 1.1//EN" "http://www.w3.org/Graphics/SVG/1.1/DTD/svg11.dtd"><svg t="1512375311659" class="icon" style="" viewBox="0 0 1024 1024" version="1.1" xmlns="http://www.w3.org/2000/svg" p-id="51803" xmlns:xlink="http://www.w3.org/1999/xlink" width="200" height="200"><defs><style type="text/css"></style></defs><path d="M1009.22304 512.64h-236.608l-6.144 104.896a23.04 23.04 0 0 1-22.848 23.36H281.35104a23.168 23.168 0 0 1-22.912-23.36l-2.56-104.768-239.616-0.064-7.296-6.592a26.432 26.432 0 0 1 0-39.616L492.35904 7.552a28.544 28.544 0 0 1 40.256 0l483.584 459.52c11.52 10.752 11.52 28.288 0 39.04l-6.976 6.528zM257.09504 767.616c0-35.2 28.48-63.744 63.552-63.744h385.344c35.136 0 63.552 28.544 63.552 63.744a63.68 63.68 0 0 1-63.552 63.808H320.64704a63.68 63.68 0 0 1-63.552-63.808z m63.104 192.576c0-35.2 30.976-63.744 69.056-63.744h246.016c38.208 0 69.12 28.544 69.12 63.744 0 35.264-30.976 63.808-69.12 63.808H389.25504c-38.144 0-69.056-28.544-69.056-63.808z" p-id="51804"></path></svg>