<?xml version="1.0" standalone="no"?><!DOCTYPE svg PUBLIC "-//W3C//DTD SVG 1.1//EN" "http://www.w3.org/Graphics/SVG/1.1/DTD/svg11.dtd"><svg t="1514336883893" class="icon" style="" viewBox="0 0 1024 1024" version="1.1" xmlns="http://www.w3.org/2000/svg" p-id="2710" xmlns:xlink="http://www.w3.org/1999/xlink" width="200" height="200"><defs><style type="text/css"></style></defs><path d="M192 1024a128 128 0 0 1-128-128V128a128 128 0 0 1 128-128h640v128h128v896H192z m192-512H320v128h64V512z m128-256H448v384h64V256z m128 128H576v256h64V384z m64 320H256V256H192v512h512v-64z m192-512h-64v704H209.728c22.208 38.08 63.04 64 110.272 64h576V192z" p-id="2711" fill="#ffffff"></path></svg>