<?xml version="1.0" standalone="no"?><!DOCTYPE svg PUBLIC "-//W3C//DTD SVG 1.1//EN" "http://www.w3.org/Graphics/SVG/1.1/DTD/svg11.dtd"><svg t="1512379868823" class="icon" style="" viewBox="0 0 1024 1024" version="1.1" xmlns="http://www.w3.org/2000/svg" p-id="99196" xmlns:xlink="http://www.w3.org/1999/xlink" width="200" height="200"><defs><style type="text/css"></style></defs><path d="M372.1 568h112v167.9h-112V568zM540 624h112v112H540V624z m-30.8-112c51.8 0 99.4-17.5 137.1-46.9l152.5 152.5c11.2 11.2 28.7 11.2 39.9 0s11.2-28.7 0-39.9L685.5 425.2c29.4-37.8 46.9-85.4 46.9-137.1 0-123.8-100.1-223.9-223.9-223.9S284.6 164.3 284.6 288.1 385.4 512 509.2 512z m0-391.8c93.1 0 167.9 74.9 167.9 167.9S602.3 456 509.2 456s-167.9-74.9-167.9-167.9 74.8-167.9 167.9-167.9z" fill="#ffffff" p-id="99197"></path><path d="M901 176.1H766c7.7 17.5 14 36.4 17.5 56h120.3v559.8H120.2V232.1H235c4.2-19.6 9.8-38.5 17.5-56h-135c-31.5 0-53.2 25.2-53.2 56v559.8c0 30.8 21.7 56 53.2 56H484v56H369.3c-15.4 0-28 12.6-28 28s12.6 28 28 28h279.9c15.4 0 28-12.6 28-28s-12.6-28-28-28H540v-56h361c30.8 0 58.8-25.2 58.8-56V232.1c0-30.8-28-56-58.8-56z" fill="#ffffff" p-id="99198"></path><path d="M204.1 735.9h112V488.2c-14-9.8-22.4-20.3-30.8-32.2h-81.2v279.9z" fill="#ffffff" p-id="99199"></path></svg>