<?xml version="1.0" standalone="no"?><!DOCTYPE svg PUBLIC "-//W3C//DTD SVG 1.1//EN" "http://www.w3.org/Graphics/SVG/1.1/DTD/svg11.dtd"><svg t="1507777851197" class="icon" style="" viewBox="0 0 1024 1024" version="1.1" xmlns="http://www.w3.org/2000/svg" p-id="18143" xmlns:xlink="http://www.w3.org/1999/xlink" width="200" height="200"><defs><style type="text/css"></style></defs><path d="M887.68 609.6a1496.736 1496.736 0 0 1-123.552 152.992 15.392 15.392 0 0 1-22.624 0 1477.248 1477.248 0 0 1-123.424-152.736c-62.24-88.832-136.448-219.008-136.448-335.008C481.632 123.296 603.296 0 752.8 0 902.336 0 1024 123.296 1024 274.848c0 115.936-74.144 246.016-136.32 334.752zM752.8 103.424c-91.296 0-165.568 75.264-165.568 167.808 0 92.512 74.272 167.872 165.568 167.872S918.4 363.744 918.4 271.232c0-92.544-74.304-167.808-165.6-167.808z m-264.448 654.56l-408.64-45.28 58.304-204.576a27.36 27.36 0 0 1 26.24-20.032h303.776a781.088 781.088 0 0 0 52.448 114.336l-32.128 155.552z m-54.816 265.984H27.392a27.424 27.424 0 0 1-21.92-11.04 28.192 28.192 0 0 1-4.384-24.384l55.488-194.688 414.912 45.984-37.952 184.128z m151.104-319.264a1449.76 1449.76 0 0 0 52.128 69.728l-66.368-7.36 13.184-63.872 1.056 1.504z m351.168-21.6l36.64 128.544-122.72-13.568a1507.712 1507.712 0 0 0 71.424-93.6c4.864-6.944 9.76-14.08 14.656-21.376z m61.312 215.04l25.248 88.64a28.16 28.16 0 0 1 1.6 9.472 27.52 27.52 0 0 1-27.36 27.744H517.408l36.096-175.008 443.616 49.152z" p-id="18144" fill="#ffffff"></path></svg>