<?xml version="1.0" standalone="no"?><!DOCTYPE svg PUBLIC "-//W3C//DTD SVG 1.1//EN" "http://www.w3.org/Graphics/SVG/1.1/DTD/svg11.dtd"><svg t="1507777597098" class="icon" style="" viewBox="0 0 1024 1024" version="1.1" xmlns="http://www.w3.org/2000/svg" p-id="11956" xmlns:xlink="http://www.w3.org/1999/xlink" width="200" height="200"><defs><style type="text/css"></style></defs><path d="M676.290787 861.799828" p-id="11957" fill="#ffffff"></path><path d="M814.764582 200.595644c58.331523-0.150426 107.410312 44.778856 112.073518 102.595656 4.732791 58.675354-35.993772 109.919459-94.686523 119.620401-13.500479 2.231831-26.830065 1.951445-39.966247-1.061169-5.16872-1.186012-7.121188 0.344854-9.400091 4.288676C741.561349 497.399467 700.368158 568.777121 658.750295 639.907135c-4.304026 7.355525 0.980327 8.477069 4.554736 11.31265 28.588105 22.681582 41.845037 52.385091 37.131689 88.423889-4.928243 37.679158-26.244734 64.049758-61.882396 77.621868-38.08541 14.503319-80.629365 2.654456-106.494453-28.616758-25.993001-31.425733-29.54899-74.771961-8.444323-109.862153 3.595898-5.978155 3.711532-8.576329-2.366907-13.07069-58.269102-43.084261-116.259864-86.547145-174.169785-130.113383-4.851495-3.650133-8.470929-4.41352-14.196327-1.664919-13.242606 6.355755-27.601638 8.804527-42.143842 6.649444-6.30152-0.934279-8.892531 1.134847-11.697413 6.039553-17.295921 30.242791-34.720779 60.413951-52.438303 90.411149-3.288906 5.568832-3.432169 8.886391 0.933255 14.514575 19.535939 25.185612 22.013363 52.696176 7.312546 81.019245-13.507642 26.0237-43.275619 41.754986-72.219835 37.880749-31.021527-4.152577-52.531424-21.215184-62.250786-51.261501-16.954137-52.410674 28.735461-104.043634 83.006506-93.973278 6.109138 1.133823 8.905834-0.588401 11.794627-5.66707 16.398482-28.825512 32.93204-57.579393 49.897434-86.074378 3.684926-6.188956 3.610224-9.411347-2.081405-14.57802-26.867928-24.387433-34.610262-62.104453-20.337187-94.78783 14.214746-32.55137 47.297212-52.40965 83.313497-50.007951 34.186613 2.278903 63.98529 26.685779 73.725118 60.553121 6.553253 22.785959 3.731998 44.592614-8.292873 64.895009-3.172249 5.355985-2.2656 7.699356 2.346441 11.128455 58.697867 43.633776 117.284193 87.416955 175.805028 131.289162 3.859911 2.89391 6.684236 3.868097 11.406794 1.209548 16.202007-9.119705 33.905204-12.71458 52.349275-10.883885 6.590092 0.653893 9.295714-1.766226 12.3247-7.024997 40.633443-70.539566 81.431637-140.986011 122.486682-211.279984 3.680832-6.30152 3.844561-9.411347-2.437515-14.312984-37.376259-29.161157-51.609425-79.043241-36.098149-123.969453C724.972533 231.139288 767.57277 200.716394 814.764582 200.595644z" p-id="11958" fill="#ffffff"></path></svg>