<?xml version="1.0" standalone="no"?><!DOCTYPE svg PUBLIC "-//W3C//DTD SVG 1.1//EN" "http://www.w3.org/Graphics/SVG/1.1/DTD/svg11.dtd"><svg t="1507791333689" class="icon" style="" viewBox="0 0 1024 1024" version="1.1" xmlns="http://www.w3.org/2000/svg" p-id="9196" xmlns:xlink="http://www.w3.org/1999/xlink" width="200" height="200"><defs><style type="text/css"></style></defs><path d="M1024 192.914447c0-38.835774-12.282942-50.757453-50.576821-50.938084-71.168813-0.180632-142.337626 0-213.506439-0.180632-10.295996 0-20.591992-0.903158-32.333039-1.445052 0-23.843359 0.361263-44.254719 0-64.666079-0.541895-30.526724-11.921679-42.809667-42.267772-42.809666-115.965426-0.361263-232.111484-0.361263-348.07691 0-29.804198 0.180632-41.906509 13.1861-42.448403 43.351561-0.361263 21.133886 0 42.087141 0 65.749868h-240.239902C9.031575 141.976363 0.361263 151.007938 0.361263 196.88834v661.111307c0 48.951138 8.489681 57.440818 57.982713 57.440819h233.375904c9.031575 46.061034 16.076204 51.66061 62.859764 51.66061h318.814605c42.448404 0 50.576821-7.044629 57.440819-51.66061 81.826072 0 161.665197 0.180632 241.504322 0 39.738931-0.180632 52.202505-12.282942 52.202505-52.7444-0.361263-223.26054-0.361263-446.52108-0.541895-669.781619zM292.261775 842.645969H73.336391V215.312754h218.925384v627.333215zM654.427941 892.319633H368.307638V106.753219h286.120303V892.319633zM950.121715 842.284706H729.028753V214.770859H950.121715v627.513847z" p-id="9197" fill="#ffffff"></path><path d="M511.909684 643.590051c-50.034927-0.361263-93.567119 42.267772-94.470277 92.302699-0.903158 51.299347 42.990298 95.012171 94.83154 94.650908 51.118716-0.361263 92.48333-42.267772 92.302699-93.386487-0.180632-51.299347-41.725878-93.205856-92.663962-93.56712z m-0.722526 143.782678c-27.455989 0-50.39619-22.940201-50.215558-50.39619 0.180632-27.63662 22.578938-49.854295 50.576821-49.854295 27.63662 0 50.39619 22.578938 50.215559 50.034927-0.180632 27.63662-23.120833 50.215558-50.576822 50.215558zM440.198977 316.647028c-9.392838 0.361263-18.06315 12.644205-27.094726 19.508202 9.392838 7.405892 18.06315 19.869466 28.359146 21.314518 22.75957 3.251367 46.422297 1.083789 69.723761 1.083789s46.964191 2.167578 69.723761-1.083789c10.295996-1.445052 18.966308-13.727994 28.539778-21.133886-8.850944-6.863997-17.521256-19.327571-26.552831-19.688834-47.506086-1.986947-95.192803-1.986947-142.698889 0zM435.502558 259.567472c50.39619 1.986947 100.973011 1.986947 151.369201 0 7.767155-0.361263 14.992415-13.366731 22.398306-20.591991-7.767155-6.683366-15.173046-18.243782-23.662727-19.14694-24.02399-2.709473-48.409243-0.903158-72.794496-0.903157-25.288411 0-50.576821-1.625684-75.684601 0.903157-8.670312 0.903158-16.256835 12.282942-24.204621 18.785677 7.586523 7.405892 14.811783 20.591992 22.578938 20.953254zM507.75516 453.926971c25.288411 0 50.757453 1.806315 75.6846-0.903157 9.212207-1.083789 17.340624-12.824837 26.010937-19.688834-8.670312-7.044629-17.159993-20.050097-26.191568-20.41136-48.589875-1.986947-97.17975-1.986947-145.769625 0.180631-8.489681 0.361263-16.437467 14.089257-24.565884 21.675781 8.309049 6.322103 16.076204 17.159993 24.927147 18.243782 23.120833 2.709473 46.602928 0.903158 69.904393 0.903157zM183.521609 641.422473c-43.712824-0.361263-79.839125 35.584406-80.200388 79.839125-0.361263 44.615982 34.500617 79.839125 79.116599 80.019757 44.254719 0.180632 80.38102-35.223143 80.742282-79.116599 0.361263-42.990298-36.668195-80.561651-79.658493-80.742283z m-1.625684 116.687952c-20.591992-0.541895-36.848827-17.521256-35.403775-38.113247 1.445052-21.856412 14.631152-33.59746 35.765038-35.042512 20.230729-1.445052 37.029458 16.076204 36.848827 36.668195 0 20.953255-16.437467 37.029458-37.21009 36.487564zM125.177633 415.994355c18.785676 3.251367 38.655142 0.903158 57.982713 0.903158 19.327571 0 39.197037 2.34821 57.982713-0.903158 9.212207-1.625684 16.79873-13.727994 24.927147-21.133886-7.947786-6.863997-15.534309-19.146939-23.843358-19.508202-39.5583-1.986947-79.477862-1.986947-119.216793 0-8.128418 0.361263-15.534309 12.824837-23.301464 19.688834 8.489681 7.22526 16.076204 19.327571 25.469042 20.953254zM179.547716 336.877756c21.314518 0 42.809667 1.986947 63.762921-0.903157 8.489681-1.083789 15.353678-12.644205 23.120832-19.508203-6.683366-7.044629-13.1861-19.688834-20.41136-20.050097-41.545246-1.986947-83.271124-2.167578-124.816369 0-7.405892 0.361263-14.089257 14.089257-21.133886 21.675781 8.128418 6.322103 15.534309 16.618098 24.385253 18.06315 17.882519 2.709473 36.668195 0.722526 55.092609 0.722526zM245.658846 454.468866c-41.545246-2.167578-83.271124-2.167578-124.816369-0.180632-7.405892 0.361263-13.908626 14.269889-20.953255 22.037044 7.22526 6.141471 13.908626 16.618098 21.675781 17.701887 18.966308 2.528841 38.655142 0.903158 57.982713 0.903158 21.314518 0 42.809667 1.625684 63.762921-0.722526 8.128418-0.903158 14.992415-11.018522 22.398306-16.979362-6.502734-7.947786-12.824837-22.398307-20.050097-22.759569zM841.200917 641.422473c-43.712824-0.903158-79.839125 34.86188-80.381019 79.116599-0.541895 45.157876 33.416828 80.200388 78.213441 80.742283 44.615982 0.541895 80.200388-34.139354 80.742283-78.574705 0.541895-43.893456-35.042512-80.561651-78.574705-81.284177z m36.306933 81.103546c-0.541895 19.327571-18.785676 36.126301-42.267772 35.584406-18.605045-2.709473-32.694302-14.811783-31.971777-37.571353 0.722526-22.398307 15.173046-35.042512 37.751985-35.765038 19.688834-0.361263 37.029458 18.605045 36.487564 37.751985zM839.394602 416.897513c19.508203 0 39.377668 2.34821 58.343976-0.903158 9.57347-1.625684 17.521256-13.1861 26.3722-20.41136-8.850944-7.044629-17.340624-19.869466-26.552831-20.41136-38.835774-2.34821-78.03281-2.34821-116.868584 0.180632-8.670312 0.541895-16.437467 14.45052-24.565884 22.037043 8.309049 6.502734 15.895572 17.159993 25.107779 18.605045 18.966308 2.890104 38.835774 0.903158 58.163344 0.903158zM840.117128 336.877756c20.41136 0 41.183983 1.625684 61.23408-0.903157 8.128418-1.083789 15.173046-11.379785 22.578938-17.521256-7.044629-7.767155-13.908626-21.675781-21.314517-22.037044-41.725878-2.167578-83.813018-2.167578-125.538896 0-7.405892 0.361263-13.908626 14.631152-20.772623 22.578938 7.586523 5.96084 14.45052 16.076204 22.578938 17.159993 20.050097 2.34821 40.82272 0.722526 61.23408 0.722526zM902.976892 454.468866c-41.725878-2.167578-83.813018-2.167578-125.538896 0-7.405892 0.361263-14.089257 14.45052-21.133886 22.398306 7.405892 5.96084 14.269889 16.256835 22.398307 17.340625 20.230729 2.528841 40.82272 0.903158 61.23408 0.903157 20.41136 0 41.183983 1.625684 61.23408-0.903157 8.128418-1.083789 15.173046-11.199153 22.759569-17.340625-7.044629-7.947786-13.547363-22.037044-20.953254-22.398306z" p-id="9198" fill="#ffffff"></path></svg>