<?xml version="1.0" standalone="no"?><!DOCTYPE svg PUBLIC "-//W3C//DTD SVG 1.1//EN" "http://www.w3.org/Graphics/SVG/1.1/DTD/svg11.dtd"><svg t="1507777421980" class="icon" style="" viewBox="0 0 1024 1024" version="1.1" xmlns="http://www.w3.org/2000/svg" p-id="8037" xmlns:xlink="http://www.w3.org/1999/xlink" width="200" height="200"><defs><style type="text/css"></style></defs><path d="M731.428571 426.666667A36.571429 36.571429 0 0 0 768 390.095238v-48.761905a36.815238 36.815238 0 0 0-36.571429-36.571428h-24.380952a48.761905 48.761905 0 0 1-46.08-29.500953c-5.12-16.335238-14.140952-67.047619 0-81.188571l18.041905-17.798095a36.815238 36.815238 0 0 0 0-51.687619L643.657143 89.965714a36.571429 36.571429 0 0 0-51.687619 0l-19.017143 17.798096a48.761905 48.761905 0 0 1-52.906667 11.702857c-14.872381-7.801905-57.782857-37.546667-57.782857-57.782857v-24.380953A36.571429 36.571429 0 0 0 426.666667 0h-48.761905a36.571429 36.571429 0 0 0-36.571429 36.571429v24.380952a48.761905 48.761905 0 0 1-29.500952 46.08c-16.335238 5.12-67.047619 14.140952-81.188571 0l-18.041905-18.041905a36.571429 36.571429 0 0 0-51.687619 0L126.537143 124.342857a36.571429 36.571429 0 0 0 0 51.687619l17.798095 19.017143a48.761905 48.761905 0 0 1 11.702857 52.906667c-7.801905 14.872381-37.546667 57.782857-57.782857 57.782857h-24.380952A36.571429 36.571429 0 0 0 36.571429 341.333333v48.761905a36.571429 36.571429 0 0 0 36.571428 36.571429h24.380953a48.761905 48.761905 0 0 1 46.08 29.500952c5.12 16.335238 14.140952 67.047619 0 81.188571l-18.041905 18.041905a36.571429 36.571429 0 0 0 0 51.687619l35.352381 34.377143a36.571429 36.571429 0 0 0 51.687619 0l19.017143-17.798095a48.761905 48.761905 0 0 1 52.906666-11.702857c14.872381 7.801905 57.782857 37.546667 57.782857 57.782857v24.380952A36.815238 36.815238 0 0 0 377.904762 731.428571h48.761905a36.571429 36.571429 0 0 0 36.571428-36.571428v-24.380953a48.761905 48.761905 0 0 1 29.744762-46.08c16.335238-5.12 67.047619-14.140952 81.188572 0l18.041904 17.798096a36.571429 36.571429 0 0 0 51.687619 0l34.377143-34.377143a36.815238 36.815238 0 0 0 0-51.687619l-18.041905-19.748572a48.761905 48.761905 0 0 1-11.702857-52.906666c7.801905-14.872381 37.546667-57.782857 57.782857-57.782857z m-329.142857 97.523809a158.47619 158.47619 0 1 1 158.476191-158.47619 158.47619 158.47619 0 0 1-158.476191 158.47619M969.142857 871.619048A18.285714 18.285714 0 0 0 987.428571 853.333333v-24.380952a18.285714 18.285714 0 0 0-18.285714-18.285714h-12.434286a24.380952 24.380952 0 0 1-23.161904-14.872381c-2.681905-8.045714-7.070476-33.401905 0-40.716191l9.020952-9.020952a18.285714 18.285714 0 0 0 0-25.84381l-17.310476-17.310476a18.285714 18.285714 0 0 0-25.84381 0l-9.020952 9.020953a24.380952 24.380952 0 0 1-26.575238 5.851428c-7.314286-3.900952-28.769524-18.773333-28.769524-28.769524v-12.678095A18.285714 18.285714 0 0 0 816.761905 658.285714h-24.380953a18.285714 18.285714 0 0 0-18.285714 18.285715v12.678095a24.380952 24.380952 0 0 1-14.872381 22.918095c-8.045714 2.681905-33.401905 7.070476-40.71619 0l-9.020953-9.020952a18.285714 18.285714 0 0 0-25.843809 0l-17.310476 17.310476a18.285714 18.285714 0 0 0 0 25.843809l9.020952 9.020953a24.380952 24.380952 0 0 1 5.851429 26.575238c-3.900952 7.558095-18.773333 28.769524-28.769524 28.769524h-12.678096A18.285714 18.285714 0 0 0 621.714286 828.952381v24.380952a18.285714 18.285714 0 0 0 18.285714 18.285715h12.678095a24.380952 24.380952 0 0 1 22.918095 14.872381c2.681905 8.045714 7.070476 33.401905 0 40.71619l-9.020952 9.020952a18.285714 18.285714 0 0 0 0 25.84381l17.310476 17.310476a18.285714 18.285714 0 0 0 25.84381 0l9.020952-9.020952a24.380952 24.380952 0 0 1 26.575238-5.851429c7.558095 3.900952 28.769524 18.773333 28.769524 28.769524v12.678095A18.285714 18.285714 0 0 0 792.380952 1024h24.380953a18.285714 18.285714 0 0 0 18.285714-18.285714v-12.678096a24.380952 24.380952 0 0 1 14.872381-22.918095c8.045714-2.681905 33.401905-7.070476 40.472381 0l9.020952 9.020953a18.285714 18.285714 0 0 0 25.84381 0l17.310476-17.310477a18.529524 18.529524 0 0 0 0-25.843809l-9.020952-9.508572a24.380952 24.380952 0 0 1-5.851429-26.575238c3.900952-7.558095 18.773333-29.013333 28.769524-29.013333zM865.52381 841.142857a60.952381 60.952381 0 1 1-60.952381-60.952381 60.952381 60.952381 0 0 1 60.952381 60.952381" fill="#ffffff" p-id="8038"></path></svg>