<?xml version="1.0" standalone="no"?><!DOCTYPE svg PUBLIC "-//W3C//DTD SVG 1.1//EN" "http://www.w3.org/Graphics/SVG/1.1/DTD/svg11.dtd"><svg t="1512376581779" class="icon" style="" viewBox="0 0 1024 1024" version="1.1" xmlns="http://www.w3.org/2000/svg" p-id="66542" xmlns:xlink="http://www.w3.org/1999/xlink" width="200" height="200"><defs><style type="text/css"></style></defs><path d="M36.354261 546.535248v-353.40811C36.354261 114.337918 81.56971 69.538243 160.670761 69.538243h478.140385a116.312846 116.312846 0 0 1 25.98589 1.195351c19.281531 4.469573 30.767294 18.034208 29.519972 37.263767s-12.109425 32.37842-32.690251 34.353347c-8.575344 0.831548-17.306603 0.623661-25.98589 0.623661h-472.943207c-40.589961 0-53.271075 12.109425-53.271075 51.971781v701.619043C109.114754 938.50642 121.53601 951.083591 163.373293 951.083591h626.156017c38.615033 0 50.932345-12.733086 50.932346-51.971781V348.210932a203.365579 203.365579 0 0 1 0.675633-25.98589c2.598589-20.113079 14.60407-30.871238 34.873065-31.183069s32.274476 10.81013 36.380246 29.987718a95.835964 95.835964 0 0 1 0.623662 20.788712v563.78988c0 71.045425-45.423337 117.820027-116.260874 117.975943q-322.225042 0.57169-644.450084 0C82.505202 1023.584226 36.354261 976.185962 36.354261 905.088565v-358.553317z" p-id="66543"></path><path d="M987.437852 37.419682c1.403238 12.681115-7.379993 21.048571-16.05928 29.779831Q890.822311 148.119576 810.733797 229.195554q-90.638786 91.262447-180.861798 182.628838a148.431406 148.431406 0 0 1-17.046744 15.903365c-16.890829 12.369284-33.937573 12.577171-49.061361-2.702532s-13.876466-32.326448-1.45521-49.00939a72.760493 72.760493 0 0 1 7.068162-7.58788q174.677156-175.716591 349.354312-351.485154c8.731259-8.783231 17.670406-16.267167 31.183068-16.838857 21.932092-1.039436 37.835457 13.72055 37.523626 37.315738zM441.318378 584.058874h207.419378c28.740395 0 46.774603 15.019845 45.83911 37.419683s-17.982236 35.184896-45.787139 35.236867H228.753794c-29.260113 0-46.09897-14.396183-45.371365-37.783485 0.675633-22.19195 16.838857-34.821093 45.319393-34.873065q106.334264-0.155915 212.616556 0z" p-id="66544"></path><path d="M328.227783 437.810283c-32.846166 0-65.744303 0.467746-98.746384 0-29.727859-0.519718-46.774603-14.708014-46.774603-37.62757 0-21.932092 17.982236-37.05588 47.034462-37.315738q98.746384-0.779577 197.180937 0c29.675887 0 47.346292 14.344212 47.969953 36.380246 0.675633 23.491245-17.410547 38.251231-48.489671 38.615033-32.482363 0.207887-65.328529-0.051972-98.174694-0.051971z" p-id="66545"></path></svg>