<?xml version="1.0" standalone="no"?><!DOCTYPE svg PUBLIC "-//W3C//DTD SVG 1.1//EN" "http://www.w3.org/Graphics/SVG/1.1/DTD/svg11.dtd"><svg t="1507780030610" class="icon" style="" viewBox="0 0 1024 1024" version="1.1" xmlns="http://www.w3.org/2000/svg" p-id="38722" xmlns:xlink="http://www.w3.org/1999/xlink" width="200" height="200"><defs><style type="text/css"></style></defs><path d="M964.608 802.304c2.56 8.192 4.096 18.944 5.632 30.72 1.536 12.288 2.048 24.576 2.048 36.864 0 12.288-1.024 24.064-2.56 35.328-2.048 10.752-4.608 18.944-8.192 24.576-2.56 3.584-9.728 7.168-21.504 11.264-11.776 3.584-26.624 6.656-44.032 9.728-17.92 3.072-37.376 5.632-58.368 8.704-20.992 2.56-42.496 5.12-64.512 6.656-21.504 2.048-42.496 3.584-62.464 4.608-19.968 1.024-37.888 1.536-53.248 1.536s-32.768-0.512-52.224-1.536c-19.968-1.024-40.448-3.072-61.44-4.608-21.504-1.536-42.496-3.584-62.976-5.632-20.48-2.048-39.424-4.608-56.832-7.168-17.408-3.072-31.744-5.632-43.52-8.192s-19.456-5.12-22.528-7.68c-5.12-4.096-8.704-16.896-11.776-38.4-3.072-21.504-2.048-48.64 3.072-81.92 3.072-19.456 10.752-33.792 23.552-43.52 12.288-9.728 27.136-17.408 44.032-23.552 16.896-6.144 34.816-11.264 52.736-15.872 17.92-4.608 33.792-11.264 48.128-20.48 10.752-7.168 19.456-13.824 25.088-19.968 5.632-6.144 10.24-12.288 12.8-18.432 2.56-6.144 4.096-12.288 4.096-18.944 0-6.656-0.512-14.336-1.024-23.04-1.024-12.288-5.632-21.504-12.8-28.672-7.168-6.656-15.36-13.824-23.552-20.48-4.096-3.584-8.192-8.704-11.264-15.36-3.072-6.656-6.144-13.312-8.704-19.968-2.56-7.168-5.12-15.36-7.168-24.576-3.584-1.024-7.168-3.072-10.752-5.632-3.072-2.56-6.144-6.144-9.728-11.264-3.584-4.608-6.656-11.264-9.728-19.968-3.072-8.192-4.096-16.384-3.584-24.064 0.512-7.68 2.048-13.824 4.608-18.944 2.56-6.144 5.632-11.776 9.728-16.384-0.512-19.456 0.512-39.424 3.072-59.392 2.56-16.896 6.144-34.816 11.264-53.248 5.12-18.432 13.312-35.84 24.064-51.712 9.728-14.848 20.992-26.624 32.768-35.328 12.288-9.216 24.576-16.384 37.376-21.504s25.6-8.704 38.4-10.24c12.8-2.048 25.088-2.56 36.352-2.56 31.232 0 58.88 6.656 83.456 19.456 24.576 12.8 42.496 26.624 53.76 40.96 13.312 16.384 23.04 34.816 29.696 55.296 6.144 20.48 11.264 39.424 14.336 56.832 3.072 20.48 4.096 41.472 3.584 61.952 3.072 2.56 5.632 5.632 8.192 9.728 1.536 3.584 3.584 8.192 5.12 14.336 1.536 5.632 1.536 12.8 0.512 21.504-1.024 10.752-3.584 19.968-7.168 26.624-3.584 6.656-7.168 11.776-10.752 15.36-4.096 4.096-9.216 7.168-14.848 8.192-2.56 9.216-4.608 17.408-7.168 24.576-2.56 6.656-5.632 13.312-9.216 19.968-3.584 6.656-7.68 11.264-11.776 14.336-5.12 4.096-9.216 8.192-13.312 10.752-4.096 3.072-7.168 6.144-10.752 9.728-3.072 3.072-5.632 7.168-7.68 11.264-2.048 4.096-3.584 9.216-5.12 15.872-1.024 7.68-1.536 15.872-1.024 24.064 0.512 8.192 2.048 16.384 6.144 24.064 3.584 8.192 9.728 15.872 17.92 23.04s19.456 13.824 34.304 18.944c12.8 5.632 27.136 10.24 42.496 14.336 15.872 4.096 30.72 8.704 44.544 13.824 14.336 5.632 27.136 12.8 38.4 20.992 9.216 7.68 16.896 18.944 22.016 32.256m-486.912-167.936c-1.536 6.656-2.56 11.776-4.608 15.36-1.536 3.584-6.144 7.68-12.8 11.776-15.872 9.728-32.768 17.408-51.2 23.552-18.432 6.144-35.84 12.8-52.736 19.968-16.384 7.168-31.232 16.896-43.52 28.672-12.288 11.776-19.968 28.672-23.552 50.688-1.024 6.656-2.048 13.312-2.048 19.968 0 6.656-1.024 12.288-1.024 17.92-0.512 1.024-1.536 2.56-2.048 3.072-0.512 1.024-1.024 2.048-2.048 3.072-23.552-2.048-47.616-4.096-72.192-6.144-24.064-2.56-46.592-5.12-67.072-8.192-20.48-3.072-37.888-6.144-51.712-9.216-14.336-3.072-23.04-6.144-26.624-9.216-5.632-4.096-9.728-16.896-12.288-38.4s-2.048-49.152 3.072-82.944c3.072-18.944 10.752-33.28 23.04-43.52 12.288-9.728 27.136-17.92 44.544-23.552 16.896-5.632 34.304-11.264 52.224-15.872 17.92-5.12 33.792-11.776 48.128-19.968 11.264-7.168 19.456-13.824 25.088-19.968 5.632-6.144 9.728-12.288 12.288-18.944 2.56-6.656 3.584-12.8 3.584-19.456 0-6.656 0-13.824-1.024-22.016-1.024-12.288-5.12-22.016-12.288-28.672-7.168-7.168-14.848-13.824-23.04-21.504-5.12-3.072-8.704-8.192-12.288-14.848-3.072-6.656-6.144-13.312-8.704-19.968-2.56-7.168-5.12-15.36-7.168-24.576-3.584-1.024-7.168-3.072-10.752-5.632-3.072-2.56-6.144-6.144-9.728-10.752-3.072-5.12-6.656-11.776-9.728-19.968-3.072-8.704-4.096-16.384-3.584-24.064 0.512-7.68 2.048-14.336 4.608-19.456 2.56-6.656 5.632-12.288 9.728-16.384-0.512-19.456 0.512-39.424 2.56-59.392 2.56-16.384 6.144-34.304 11.776-53.248 5.632-18.944 13.824-35.84 24.576-51.2 9.728-14.848 20.48-26.624 32.768-35.84 12.288-9.216 24.576-16.384 36.864-21.504 12.288-5.12 25.088-8.704 37.888-10.752 12.8-1.536 25.088-2.56 37.376-2.56 30.72 0 57.856 6.144 81.92 18.944 24.576 12.8 42.496 26.624 54.784 40.96 7.68 10.24 12.8 19.968 14.848 28.672 2.048 8.704 5.12 18.944 8.704 30.72-11.776 6.656-24.064 16.384-36.864 29.696-12.8 13.312-24.576 26.112-34.304 39.936-12.288 16.896-21.504 35.84-27.136 56.32-6.144 20.48-10.752 39.936-13.824 57.344-3.072 20.992-4.608 42.496-4.608 64-4.608 5.632-8.704 11.776-10.752 17.92-2.56 6.144-4.096 13.312-4.608 21.504-0.512 8.192 0.512 16.896 3.584 26.624 3.072 10.24 6.144 18.432 9.728 23.552 3.584 5.632 7.168 9.728 10.24 12.8 3.584 3.584 7.168 6.144 10.752 7.168 2.56 9.728 5.12 18.944 7.168 27.648 2.56 7.168 5.12 14.848 8.704 22.528 3.584 7.68 7.68 13.312 12.288 16.896 4.096 3.584 7.68 6.656 9.728 9.216 2.56 2.56 4.608 4.608 6.144 6.656 1.536 2.048 2.56 5.12 2.56 8.704 2.56 5.12 3.584 9.728 4.608 15.872" p-id="38723" fill="#ffffff"></path></svg>