<?xml version="1.0" standalone="no"?><!DOCTYPE svg PUBLIC "-//W3C//DTD SVG 1.1//EN" "http://www.w3.org/Graphics/SVG/1.1/DTD/svg11.dtd"><svg t="1507791494326" class="icon" style="" viewBox="0 0 1024 1024" version="1.1" xmlns="http://www.w3.org/2000/svg" p-id="11335" xmlns:xlink="http://www.w3.org/1999/xlink" width="200" height="200"><defs><style type="text/css"></style></defs><path d="M872.59008 590.223572l-47.710628-123.984802-374.333594 143.93825 108.052948 281.014208 0 0.119727 401.097144 0 0-301.087383L872.59008 590.223572zM805.678134 509.48369l31.076786 80.739882L595.700819 590.223572 805.678134 509.48369zM558.598806 797.959847l-64.825424-168.555927 64.825424-24.925692L558.598806 797.959847zM926.222581 857.856006 592.071152 857.856006 592.071152 623.680569l334.151429 0L926.222581 857.856006z" p-id="11336" fill="#ffffff"></path><path d="M860.303242 714.225771 833.538669 723.125465 810.333154 679.418011 735.410767 787.590686 695.298188 761.714342 632.390439 830.04766 895.966487 830.04766Z" p-id="11337" fill="#ffffff"></path><path d="M665.624355 724.647121c17.489326 0 31.659047-14.177907 31.659047-31.659047 0-17.49035-14.170744-31.659047-31.659047-31.659047s-31.659047 14.169721-31.659047 31.659047C633.964284 710.468191 648.135028 724.647121 665.624355 724.647121z" p-id="11338" fill="#ffffff"></path><path d="M388.049478 433.296497c204.330712 0 346.848613-51.767014 346.848613-115.616204l0-69.385277c0-63.822584-142.517901-115.608018-346.848613-115.608018-204.365504 0-323.746452 51.78441-323.746452 115.608018l0 69.385277C64.303027 381.529483 183.683974 433.296497 388.049478 433.296497z" p-id="11339" fill="#ffffff"></path><path d="M386.883933 710.802812c-165.6876 0-259.09192-34.039257-306.22131-80.945567-10.987239 10.969842-16.359596 22.589484-16.359596 34.704406l0 92.480274c0 63.850214 119.380948 115.616204 323.746452 115.616204 38.435381 0 75.502601-1.849114 110.345154-5.245468l-60.683081-157.791769C421.076686 710.341301 404.170644 710.802812 386.883933 710.802812z" p-id="11340" fill="#ffffff"></path><path d="M388.049478 664.562675c10.849092 0 21.527292-0.221034 32.137954-0.512676l-32.241308-83.820034L659.360697 475.873198c-62.119803 17.918092-146.248875 26.782993-272.476765 26.782993-165.6876 0-259.09192-34.003442-306.22131-80.910774-10.987239 10.951423-16.359596 22.589484-16.359596 34.688034l0 92.496647C64.303027 612.744495 183.683974 664.562675 388.049478 664.562675z" p-id="11341" fill="#ffffff"></path></svg>