<?xml version="1.0" standalone="no"?><!DOCTYPE svg PUBLIC "-//W3C//DTD SVG 1.1//EN" "http://www.w3.org/Graphics/SVG/1.1/DTD/svg11.dtd"><svg t="1512376205701" class="icon" style="" viewBox="0 0 1024 1024" version="1.1" xmlns="http://www.w3.org/2000/svg" p-id="64610" xmlns:xlink="http://www.w3.org/1999/xlink" width="200" height="200"><defs><style type="text/css"></style></defs><path d="M989.013667 521.796173L811.882858 344.665365c11.595471-28.788754 17.992971-59.976572 17.992972-93.163608 0-138.745802-112.755955-251.501757-251.501757-251.501757-79.568918 0-150.741117 37.585318-196.723155 95.562671-39.584537-17.992971-91.564233-28.788754-149.541586-28.788755-126.750488 0-225.911753 51.579852-225.911753 117.554081v638.150722c0 65.974229 99.161265 117.55408 225.911753 117.554081 3.998438 0 7.597032-0.399844 11.595471-0.399844 27.189379 49.180789 112.755955 84.367044 217.115189 84.367044 126.750488 0 226.311597-51.579852 226.311597-117.55408v-221.513472c0-65.974229-99.161265-117.55408-226.311597-117.55408h-2.399063v-94.762983c35.586099 19.592347 76.370168 30.38813 119.953144 30.388129 34.386568 0 67.17376-6.797345 96.762202-19.592346l175.931277 175.931276c18.392815 18.392815 42.783288 28.388911 68.773135 28.388911s50.38032-9.996095 68.773136-28.388911 28.388911-42.783288 28.38891-68.773135c0.799688-25.989848-9.596251-50.38032-27.989066-68.773136zM232.509176 95.962515c53.579071 0 98.761421 9.596251 132.348302 23.590784-23.590785 38.385006-37.585318 83.167513-37.585319 131.548614 0 3.19875 0.399844 6.397501 0.399844 9.596252C300.08278 267.895353 268.095275 272.293635 232.509176 272.293635c-117.55408 0-196.723155-45.582194-196.723155-87.965638C35.786021 141.544709 114.955096 95.962515 232.509176 95.962515zM35.786021 243.105037c0.799688 0.799688 1.999219 1.199531 2.798907 1.999219 3.598594 2.798907 7.197189 5.997657 10.795783 8.796564 1.599375 1.199531 3.19875 2.399063 4.798125 3.19875 4.798126 3.19875 9.596251 5.997657 14.794221 8.796564l2.399063 1.199532c5.997657 3.19875 12.795002 5.997657 19.592347 8.796564 1.999219 0.799688 3.998438 1.599375 5.597813 2.399062 5.19797 1.999219 10.795783 3.998438 16.393597 5.597814 2.399063 0.799688 4.398282 1.599375 6.797344 1.999219 7.197189 1.999219 14.394377 3.998438 21.99141 5.597813 0.799688 0 1.199531 0.399844 1.599375 0.399844 7.996876 1.599375 16.79344 3.19875 25.19016 4.398282 2.399063 0.399844 4.798126 0.799688 7.597033 0.799688 6.797345 0.799688 13.194846 1.599375 19.99219 1.999219 2.798907 0.399844 5.19797 0.399844 7.996877 0.799687 9.196408 0.399844 18.792659 0.799688 28.38891 0.799688 9.596251 0 18.792659-0.399844 28.388911-0.799688 2.798907 0 5.19797-0.399844 7.996876-0.799687 6.797345-0.399844 13.59469-1.199531 19.99219-1.999219 2.399063-0.399844 5.19797-0.799688 7.597033-0.799688 8.796564-1.199531 17.193284-2.798907 25.19016-4.398282 0.799688 0 1.199531-0.399844 1.599375-0.399844 2.399063-0.399844 4.798126-1.199531 7.197189-1.999219 4.398282 28.388911 13.59469 55.57829 26.789535 79.968762-32.787193 12.395158-75.170636 20.791878-124.751269 20.791879-117.55408 0-196.723155-45.582194-196.723155-87.965639V243.105037z m0 118.353768c38.385006 35.586099 111.156579 58.77704 196.723155 58.77704 53.579071 0 101.960172-9.596251 140.345178-25.19016 11.595471 16.393596 24.790316 31.187817 39.584537 44.382663-28.788754 29.588442-93.563452 54.378758-179.929715 54.378759-117.55408 0-196.723155-45.582194-196.723155-87.965639V361.458805z m0 102.75986c38.385006 35.586099 111.156579 58.77704 196.723155 58.77704 85.566576 0 158.338149-23.590785 196.723155-58.77704v43.982819c0 42.383444-79.169075 87.965638-196.723155 87.965638-117.55408 0-196.723155-45.582194-196.723155-87.965638v-43.982819z m0 102.759859c38.385006 35.586099 111.156579 58.77704 196.723155 58.77704 11.595471 0 22.791097-0.399844 33.58688-1.199531-19.592347 17.593128-31.187817 37.985162-31.187817 59.976571v14.394378h-2.399063c-117.55408 0-196.723155-45.582194-196.723155-87.965639v-43.982819z m242.30535 187.526747c1.599375 1.199531 3.19875 2.399063 4.798125 3.198751 4.798126 3.19875 9.596251 5.997657 14.794221 9.196408l2.399063 1.199531c5.997657 3.19875 12.795002 5.997657 19.592347 9.196408 1.999219 0.799688 3.998438 1.599375 5.597813 1.999219 5.19797 1.999219 10.795783 3.998438 16.393597 5.597813 2.399063 0.799688 4.398282 1.599375 6.797344 1.999219 7.197189 1.999219 14.394377 3.998438 21.99141 5.597813 0.799688 0 1.199531 0.399844 1.599375 0.399844 7.996876 1.599375 16.79344 3.19875 25.19016 4.398282 2.399063 0.399844 4.798126 0.799688 7.597033 0.799688 6.797345 0.799688 13.194846 1.599375 19.99219 1.999219 2.798907 0.399844 5.19797 0.399844 7.996876 0.799687 9.196408 0.399844 18.792659 0.799688 28.388911 0.799688 9.596251 0 18.792659-0.399844 28.388911-0.799688 2.798907 0 5.19797-0.399844 7.996876-0.799687 6.797345-0.399844 13.59469-1.199531 19.99219-1.999219 2.399063-0.399844 5.19797-0.799688 7.597033-0.799688 8.796564-1.199531 17.193284-2.798907 25.19016-4.398282 0.799688 0 1.199531-0.399844 1.599375-0.399844 7.597032-1.599375 14.794221-3.598594 21.99141-5.597813 2.399063-0.799688 4.398282-1.199531 6.797344-1.999219 5.597813-1.999219 11.195627-3.598594 16.393597-5.597813 1.999219-0.799688 3.998438-1.599375 5.597813-1.999219 6.797345-2.798907 13.194846-5.597813 19.592347-8.796564l2.399063-1.199532c5.19797-2.798907 10.395939-5.997657 14.794221-8.796564 1.599375-1.199531 3.19875-1.999219 4.798125-3.19875 3.998438-2.798907 7.597032-5.597813 10.795783-8.39672 0.799688-0.799688 1.999219-1.199531 2.798907-1.999219v59.576728c0 42.383444-79.169075 87.965638-196.723155 87.965638-117.55408 0-196.723155-45.582194-196.723155-87.965638V743.709488c0.799688 0.799688 1.999219 1.199531 2.798907 1.99922 3.19875 2.798907 6.797345 5.997657 10.795783 8.796563zM35.786021 669.738383c38.385006 35.586099 111.156579 58.77704 196.723155 58.777041h2.399063v73.171417h-2.399063c-117.55408 0-196.723155-45.582194-196.723155-87.965638v-43.98282z m196.723155 240.705975c-117.55408 0-196.723155-45.582194-196.723155-87.965639v-49.580632c38.385006 35.586099 111.156579 58.77704 196.723155 58.77704h2.399063v74.770793c0 1.599375 0.399844 2.798907 0.399844 3.998438-1.199531-0.399844-1.999219 0-2.798907 0z m228.71066 83.567356c-117.55408 0-196.723155-45.582194-196.723155-87.965638v-43.982819c38.385006 35.586099 111.156579 58.77704 196.723155 58.77704 85.566576 0 157.938305-23.590785 196.723155-58.77704v43.982819c-0.399844 42.383444-79.169075 87.965638-196.723155 87.965638z m196.323311-309.47911c0 42.383444-79.169075 87.965638-196.723155 87.965639-117.55408 0-196.723155-45.582194-196.723155-87.965639s79.169075-87.965638 196.723155-87.965638c117.953924 0 196.723155 45.582194 196.723155 87.965638z m-230.310035-115.954705c0.799688-0.399844 1.199531-0.799688 1.999219-1.599375v1.599375h-1.999219z m151.140961-124.751269c-105.95861 0-192.324873-86.366263-192.324873-192.324873s86.366263-192.324873 192.324873-192.324873 192.324873 86.366263 192.324873 192.324873-85.966419 192.324873-192.324873 192.324873z m369.055837 173.932058c-14.394377 14.394377-39.984381 14.394377-54.378758 0l-159.537681-159.537681L787.89223 403.842249l159.53768 159.537681c7.197189 7.197189 11.195627 16.79344 11.195627 27.189379 0 10.395939-3.998438 19.992191-11.195627 27.189379z" p-id="64611"></path><path d="M578.374073 98.361578c-7.996876 0-14.794221 6.397501-14.794221 14.794221s6.797345 14.794221 14.794221 14.794221c67.973448 0 123.551738 55.57829 123.551737 123.551737 0 7.996876 6.797345 14.794221 14.794221 14.794221s14.794221-6.397501 14.794221-14.794221c0-84.367044-68.373292-153.14018-153.140179-153.140179z" p-id="64612"></path></svg>