<?xml version="1.0" standalone="no"?><!DOCTYPE svg PUBLIC "-//W3C//DTD SVG 1.1//EN" "http://www.w3.org/Graphics/SVG/1.1/DTD/svg11.dtd"><svg t="1512369107400" class="icon" style="" viewBox="0 0 1024 1024" version="1.1" xmlns="http://www.w3.org/2000/svg" p-id="20929" xmlns:xlink="http://www.w3.org/1999/xlink" width="200" height="200"><defs><style type="text/css"></style></defs><path d="M176.29866667 26.112v948.736h667.136V26.112h-667.136z m41.984 906.24V68.608h582.144v863.744h-582.144z m291.328-835.072c-116.224 0-209.92 94.208-209.92 210.432 0 116.224 94.208 209.92 209.92 209.92 116.224 0 209.92-94.208 209.92-209.92 0-116.224-93.696-210.432-209.92-210.432z m0 390.656c-102.4 0-182.784-81.92-183.296-180.224 0-98.304 80.896-180.224 183.296-180.224 102.4 0 182.784 81.92 183.296 180.224-0.512 97.792-80.896 180.224-183.296 180.224z m3.584-282.112c-55.808 0-101.376 45.568-101.376 101.888 0 55.808 45.056 101.888 101.376 101.888 55.808-0.512 101.376-46.08 101.376-101.888 0-56.32-45.056-101.888-101.376-101.888z m0 177.152c-44.032 0-77.312-35.328-77.824-75.776 0-40.448 33.792-75.264 77.824-75.776 44.032 0 77.824 34.816 77.824 75.776s-33.792 75.776-77.824 75.776z m-207.36 446.976h407.04v-76.8h-407.04v76.8z m24.576-52.736h358.4v28.16h-358.4v-28.16z" fill="#020202" p-id="20930"></path></svg>