<?xml version="1.0" standalone="no"?><!DOCTYPE svg PUBLIC "-//W3C//DTD SVG 1.1//EN" "http://www.w3.org/Graphics/SVG/1.1/DTD/svg11.dtd"><svg t="1512375642920" class="icon" style="" viewBox="0 0 1024 1024" version="1.1" xmlns="http://www.w3.org/2000/svg" p-id="55176" xmlns:xlink="http://www.w3.org/1999/xlink" width="200" height="200"><defs><style type="text/css"></style></defs><path d="M512 364.544c-102.4 0-186.368 83.968-186.368 186.368 0 102.4 83.968 186.368 186.368 186.368 102.4 0 186.368-83.968 186.368-186.368C698.368 448.512 614.4 364.544 512 364.544L512 364.544zM958.464 225.28l-202.752 0c-16.384-10.24-32.768-30.72-51.2-65.536-20.48-43.008-94.208-43.008-94.208-43.008L374.784 116.736c0 0-24.576-6.144-53.248 43.008-18.432 32.768-36.864 53.248-53.248 65.536L65.536 225.28C28.672 225.28 0 256 0 294.912l0 542.72c0 38.912 28.672 69.632 65.536 69.632l890.88 0c36.864 0 65.536-30.72 65.536-69.632L1021.952 294.912C1024 256 995.328 225.28 958.464 225.28L958.464 225.28zM512 784.384c-129.024 0-233.472-104.448-233.472-233.472 0-129.024 104.448-233.472 233.472-233.472 129.024 0 233.472 104.448 233.472 233.472C743.424 679.936 641.024 784.384 512 784.384L512 784.384zM845.824 364.544c-20.48 0-38.912-16.384-38.912-38.912 0-20.48 16.384-38.912 38.912-38.912 20.48 0 38.912 16.384 38.912 38.912C884.736 348.16 866.304 364.544 845.824 364.544L845.824 364.544zM845.824 364.544" p-id="55177"></path></svg>